<svg width="33" height="30" viewBox="0 0 33 30" fill="none" xmlns="http://www.w3.org/2000/svg">
<path d="M16.5 0C7.38508 0 0 6.71371 0 15C0 23.2863 7.38508 30 16.5 30C25.6149 30 33 23.2863 33 15C33 6.71371 25.6149 0 16.5 0ZM16.5 5.80645C19.7335 5.80645 22.3548 8.18952 22.3548 11.129C22.3548 14.0685 19.7335 16.4516 16.5 16.4516C13.2665 16.4516 10.6452 14.0685 10.6452 11.129C10.6452 8.18952 13.2665 5.80645 16.5 5.80645ZM16.5 26.6129C12.5946 26.6129 9.09496 25.004 6.75302 22.4879C8.00383 20.3468 10.4522 18.871 13.3065 18.871C13.4661 18.871 13.6258 18.8952 13.7788 18.9375C14.6438 19.1915 15.5486 19.3548 16.5 19.3548C17.4514 19.3548 18.3629 19.1915 19.2212 18.9375C19.3742 18.8952 19.5339 18.871 19.6936 18.871C22.5478 18.871 24.9962 20.3468 26.247 22.4879C23.905 25.004 20.4054 26.6129 16.5 26.6129Z" fill="black"/>
</svg>
