<svg width="36" height="36" viewBox="0 0 36 36" fill="none" xmlns="http://www.w3.org/2000/svg">
<g clip-path="url(#clip0_711_4432)">
<path d="M25.6277 22.5456C25.1003 20.6264 23.9602 18.9339 22.3823 17.7278C20.8044 16.5216 18.8759 15.8685 16.8926 15.8685C14.9093 15.8685 12.9808 16.5216 11.4029 17.7278C9.82497 18.9339 8.68487 20.6264 8.15746 22.5456L6.90062 27.1191C6.67496 27.9403 6.64129 28.8027 6.80225 29.639C6.9632 30.4754 7.31442 31.2632 7.82853 31.9409C8.34263 32.6186 9.00573 33.1679 9.76612 33.5461C10.5265 33.9243 11.3636 34.121 12.2122 34.121H21.5729C22.4215 34.121 23.2587 33.9243 24.0191 33.5461C24.7794 33.1679 25.4425 32.6186 25.9566 31.9409C26.4708 31.2632 26.822 30.4754 26.9829 29.639C27.1439 28.8027 27.1102 27.9403 26.8845 27.1191L25.6277 22.5456ZM24.2032 30.6002C23.8961 31.0083 23.4985 31.3391 23.042 31.5662C22.5854 31.7933 22.0825 31.9105 21.5729 31.9086H12.2122C11.7031 31.9086 11.2008 31.7906 10.7445 31.5637C10.2883 31.3368 9.89043 31.0071 9.58196 30.6005C9.27349 30.1939 9.06275 29.7212 8.96618 29.2194C8.86961 28.7176 8.88982 28.2001 9.02522 27.7074L10.2821 23.134C10.6812 21.6816 11.544 20.4008 12.7381 19.488C13.9322 18.5752 15.3917 18.0809 16.8926 18.0809C18.3935 18.0809 19.853 18.5752 21.0471 19.488C22.2412 20.4008 23.104 21.6816 23.5031 23.134L24.76 27.7074C24.8973 28.1999 24.9185 28.7178 24.8219 29.2199C24.7252 29.7221 24.5134 30.1948 24.2032 30.6005V30.6002ZM9.32318 17.411C9.51493 16.208 9.26064 14.9201 8.60687 13.7838C7.95311 12.6474 6.96902 11.7824 5.83554 11.3476C4.62168 10.8823 3.38357 10.9564 2.3481 11.5562C0.289618 12.7493 -0.252087 15.6897 1.14078 18.1109C1.79434 19.2472 2.7785 20.1124 3.91198 20.547C4.41409 20.7435 4.9478 20.8459 5.48668 20.8492C6.15804 20.8517 6.81804 20.6754 7.39942 20.3384C8.43427 19.7385 9.11752 18.6988 9.32318 17.411ZM7.14672 17.0613C7.04822 17.6786 6.74655 18.162 6.29728 18.4223C5.848 18.6827 5.28019 18.7032 4.69819 18.4802C4.0361 18.2264 3.45052 17.7023 3.04925 17.0047C2.27784 15.6634 2.46119 14.0455 3.4501 13.4722C3.6987 13.3306 3.98025 13.2577 4.26607 13.2608C4.53419 13.2636 4.79954 13.3156 5.04905 13.4141C5.71115 13.668 6.29672 14.192 6.69799 14.8897C7.09926 15.5874 7.25857 16.3588 7.14672 17.0613ZM9.5619 12.8276C10.3445 13.4556 11.2381 13.7826 12.1418 13.7825C12.4125 13.7825 12.6824 13.7532 12.9469 13.6954C15.2696 13.1885 16.6779 10.5535 16.0863 7.82151C15.8087 6.53927 15.1339 5.41432 14.1861 4.65373C13.1712 3.83928 11.9691 3.53099 10.8011 3.78597C8.47849 4.29276 7.0702 6.92776 7.66177 9.65976C7.9394 10.9421 8.61424 12.067 9.5619 12.8276ZM11.2692 5.94793C11.3763 5.92475 11.4855 5.91316 11.5951 5.91336C12.0048 5.91336 12.4262 6.07424 12.8099 6.38219C13.3634 6.8264 13.7621 7.50458 13.9325 8.29185C14.2604 9.80564 13.5946 11.2902 12.4788 11.5337C11.9718 11.6444 11.4246 11.4903 10.9382 11.0999C10.3847 10.6556 9.98597 9.97745 9.81557 9.19024C9.48765 7.67604 10.1534 6.19143 11.2692 5.94793ZM31.4371 11.5562C30.402 10.9564 29.1633 10.8823 27.9496 11.3476C26.8162 11.7823 25.832 12.6474 25.1784 13.7838C24.5249 14.9201 24.2705 16.2083 24.4621 17.411C24.6675 18.6988 25.3506 19.7385 26.3859 20.3384C26.9673 20.6754 27.6273 20.8517 28.2986 20.8492C28.8375 20.8459 29.3712 20.7435 29.8733 20.547C31.0068 20.1124 31.991 19.2472 32.6445 18.1109C34.0373 15.6897 33.4956 12.7493 31.4371 11.5562ZM30.7359 17.0047C30.3347 17.7023 29.7491 18.2264 29.087 18.4802C28.5053 18.7034 27.9373 18.6829 27.488 18.4223C27.0388 18.1618 26.7373 17.6786 26.6386 17.0613C26.5266 16.3588 26.6858 15.5877 27.0872 14.8903C27.4885 14.193 28.074 13.6687 28.7361 13.4147C28.9856 13.3161 29.251 13.264 29.5191 13.2612C29.8049 13.258 30.0865 13.331 30.3351 13.4726C31.324 14.0454 31.5075 15.663 30.7359 17.0047ZM20.8383 13.6954C21.1027 13.7532 21.3726 13.7825 21.6433 13.7825C22.547 13.7825 23.441 13.4556 24.2233 12.8276C25.1709 12.0671 25.8458 10.9421 26.1234 9.65982C26.715 6.92782 25.3067 4.29283 22.9841 3.78604C21.8161 3.5312 20.6139 3.83928 19.599 4.6538C18.6513 5.41432 17.9765 6.53934 17.6989 7.82151C17.1073 10.5535 18.5156 13.1885 20.8383 13.6954ZM19.8526 8.29151C20.023 7.50423 20.4218 6.82578 20.9753 6.38184C21.3591 6.0739 21.7804 5.91301 22.1901 5.91301C22.2996 5.91281 22.4089 5.9244 22.516 5.94758C23.6318 6.19109 24.2975 7.67604 23.9697 9.18948C23.7992 9.97675 23.4005 10.6552 22.8471 11.0992C22.3607 11.4896 21.8139 11.6436 21.3065 11.5331C20.1905 11.2899 19.5248 9.80508 19.8526 8.29151Z" fill="#DB5E00"/>
</g>
<defs>
<clipPath id="clip0_711_4432">
<rect width="35.2642" height="35.3988" fill="white" transform="translate(0.367676 0.552246)"/>
</clipPath>
</defs>
</svg>
