<svg width="101" height="105" viewBox="0 0 101 105" fill="none" xmlns="http://www.w3.org/2000/svg">
<g filter="url(#filter0_d_711_4203)">
<circle cx="50.1921" cy="51.4717" r="45" fill="#F9E1CF"/>
</g>
<path d="M36.6296 52.3779H47.8796V55.1904H36.6296V52.3779Z" fill="#DB5E00"/>
<path d="M32.4109 55.1904C33.1875 55.1904 33.8171 54.5608 33.8171 53.7842C33.8171 53.0075 33.1875 52.3779 32.4109 52.3779C31.6342 52.3779 31.0046 53.0075 31.0046 53.7842C31.0046 54.5608 31.6342 55.1904 32.4109 55.1904Z" fill="#DB5E00"/>
<path d="M46.4734 49.5654C47.25 49.5654 47.8796 48.9358 47.8796 48.1592C47.8796 47.3825 47.25 46.7529 46.4734 46.7529C45.6967 46.7529 45.0671 47.3825 45.0671 48.1592C45.0671 48.9358 45.6967 49.5654 46.4734 49.5654Z" fill="#DB5E00"/>
<path d="M31.0046 46.7529H42.2546V49.5654H31.0046V46.7529ZM36.6296 41.1279H47.8796V43.9404H36.6296V41.1279Z" fill="#DB5E00"/>
<path d="M32.4109 43.9404C33.1875 43.9404 33.8171 43.3108 33.8171 42.5342C33.8171 41.7575 33.1875 41.1279 32.4109 41.1279C31.6342 41.1279 31.0046 41.7575 31.0046 42.5342C31.0046 43.3108 31.6342 43.9404 32.4109 43.9404Z" fill="#DB5E00"/>
<path d="M70.3796 68.6904L59.9734 58.2842C62.0828 55.4717 63.3484 51.9561 63.3484 48.1592C63.3484 38.8779 55.7546 31.2842 46.4734 31.2842C41.8328 31.2842 37.4734 33.1123 34.239 36.6279L36.3484 38.5967C38.8796 35.6436 42.5359 34.0967 46.4734 34.0967C54.2078 34.0967 60.5359 40.4248 60.5359 48.1592C60.5359 55.8936 54.2078 62.2217 46.4734 62.2217C42.2546 62.2217 38.3171 60.3936 35.6453 57.1592L33.5359 58.9873C36.6296 62.7842 41.4109 65.0342 46.4734 65.0342C50.9734 65.0342 55.0515 63.2061 58.1453 60.3936L68.4109 70.6592L70.3796 68.6904Z" fill="#DB5E00"/>
<defs>
<filter id="filter0_d_711_4203" x="1.19214" y="6.47168" width="98" height="98" filterUnits="userSpaceOnUse" color-interpolation-filters="sRGB">
<feFlood flood-opacity="0" result="BackgroundImageFix"/>
<feColorMatrix in="SourceAlpha" type="matrix" values="0 0 0 0 0 0 0 0 0 0 0 0 0 0 0 0 0 0 127 0" result="hardAlpha"/>
<feOffset dy="4"/>
<feGaussianBlur stdDeviation="2"/>
<feComposite in2="hardAlpha" operator="out"/>
<feColorMatrix type="matrix" values="0 0 0 0 0 0 0 0 0 0 0 0 0 0 0 0 0 0 0.25 0"/>
<feBlend mode="normal" in2="BackgroundImageFix" result="effect1_dropShadow_711_4203"/>
<feBlend mode="normal" in="SourceGraphic" in2="effect1_dropShadow_711_4203" result="shape"/>
</filter>
</defs>
</svg>
