<svg width="36" height="36" viewBox="0 0 36 36" fill="none" xmlns="http://www.w3.org/2000/svg">
<path d="M32.326 18.1518C32.326 10.2098 25.9116 3.771 17.9999 3.771C10.0882 3.771 3.67383 10.2098 3.67383 18.1518C3.67383 26.0937 10.0882 32.5325 17.9999 32.5325C25.9116 32.5325 32.326 26.0937 32.326 18.1518Z" stroke="#DB5E00" stroke-width="2.21243" stroke-miterlimit="10"/>
<path d="M31.0565 12.3536C29.9504 12.3605 30.0592 14.409 28.681 13.4425C28.1692 13.0843 27.8545 12.5637 27.2119 12.4054C26.6505 12.2671 26.0754 12.4109 25.521 12.507C24.8908 12.6163 24.1435 12.6654 23.6655 13.1445C23.2033 13.6057 22.9588 14.2244 22.467 14.6884C21.5159 15.5872 21.1143 16.5682 21.7301 17.839C22.3224 19.0607 23.5615 19.7237 24.8983 19.6366C26.2118 19.5488 27.5762 18.7841 27.5383 20.6999C27.5246 21.3775 27.6658 21.8476 27.8731 22.4775C28.0652 23.0582 28.0521 23.621 28.0962 24.2205C28.1775 25.3405 28.3828 26.596 28.9365 27.5854L29.9696 26.1224C30.0971 25.9413 30.3636 25.6876 30.427 25.4739C30.5392 25.0957 30.3182 24.4458 30.2927 24.022C30.2672 23.5982 30.2796 23.1689 30.2148 22.745C30.1239 22.1511 29.774 21.5946 29.7258 21.0076C29.637 19.9145 29.836 19.042 28.9971 18.128C28.1871 17.2465 26.9997 17.0349 25.8654 17.214C25.2937 17.3039 22.9926 17.6731 23.9162 16.3615C24.0987 16.1036 24.4176 15.8921 24.6228 15.6466C24.8012 15.433 24.9562 15.0403 25.1656 14.8736C25.375 14.707 26.3365 14.5155 26.612 14.6006C26.8875 14.6856 27.1747 15.0845 27.4137 15.2615C27.8552 15.5954 28.3706 15.8174 28.9158 15.9086C29.8567 16.0469 31.8238 15.498 31.8086 14.2867C31.8059 13.7059 31.2686 12.897 31.0565 12.3536ZM20.1659 22.3205C19.7988 20.7691 17.6988 20.2505 16.5665 19.4091C15.9156 18.9252 15.3364 18.1778 14.4816 18.1169C14.0877 18.0886 13.7577 18.1743 13.3672 18.0727C13.0091 17.98 12.7281 17.7864 12.3465 17.8369C11.6336 17.9309 11.1839 18.6956 10.418 18.5919C9.69134 18.4937 8.94267 17.6406 8.77737 16.9457C8.56523 16.0525 9.26914 15.7628 10.0233 15.6833C10.3381 15.6501 10.6914 15.6141 10.9938 15.7296C11.3919 15.8782 11.5799 16.2695 11.9374 16.4673C12.6075 16.8358 12.7432 16.2467 12.6406 15.6494C12.487 14.7547 12.3079 14.3897 13.1027 13.7743C13.6537 13.3498 14.1249 13.0429 14.0367 12.2803C13.9843 11.8323 13.7398 11.6297 13.9678 11.1837C14.1407 10.8443 14.6152 10.538 14.9245 10.3354C15.7228 9.81272 18.3442 9.85144 17.2731 8.38848C16.9584 7.95913 16.3778 7.19169 15.8268 7.0866C15.138 6.95593 14.8322 7.72751 14.3521 8.06767C13.8562 8.41959 12.8906 8.81921 12.394 8.27509C11.7259 7.54291 12.8369 7.30231 13.0828 6.79138C13.3287 6.28045 12.5132 5.31459 12.0765 5.06984L10.0233 7.38113C9.96434 7.76821 9.98488 8.1633 10.0837 8.54212C10.1824 8.92093 10.3574 9.27546 10.5977 9.58388C11.0062 10.1114 11.6564 10.2808 11.686 11.0012C11.7149 11.6926 11.6075 12.0466 11.157 12.5326C10.9621 12.74 10.8243 13.0346 10.626 13.2288C10.3829 13.466 10.4731 13.3934 10.0936 13.4584C9.38003 13.5794 8.77255 13.7661 8.0831 13.9569C6.93426 14.2756 6.82819 12.3916 6.30474 11.6525L4.58286 13.0484C4.56426 13.2772 4.86525 13.6983 4.94721 13.9472C5.41763 15.3694 6.36673 16.4694 6.97972 17.83C7.62508 19.2708 9.35799 18.8712 10.1232 20.1337C10.8023 21.2537 10.077 22.6718 10.5853 23.8443C10.9545 24.6954 11.8251 24.8814 12.4257 25.5037C13.0394 26.1321 13.0263 26.9922 13.12 27.8101C13.2256 28.7721 13.397 29.7257 13.6331 30.6641C13.7164 30.9884 13.7929 31.4171 14.014 31.6846C14.1655 31.8685 14.6855 32.0269 14.4754 32.0877C14.7688 32.1361 15.2916 32.4113 15.5361 32.2094C15.8584 31.9439 15.7724 31.1267 15.8281 30.7575C15.9955 29.6582 16.5438 28.5831 17.2835 27.7603C18.0142 26.9486 19.0157 26.399 19.6328 25.4788C20.2341 24.5814 20.4152 23.3707 20.1659 22.3205ZM17.8662 24.1403C17.4529 24.8807 16.5327 25.3764 15.9411 25.9648C15.7806 26.1245 15.439 26.6776 15.2379 26.558C15.0939 26.4723 15.045 25.7546 14.992 25.5901C14.7184 24.7615 14.1961 24.0382 13.4967 23.5194C13.2811 23.3555 12.7467 23.1426 12.6234 22.9179C12.4856 22.6738 12.6096 22.0979 12.6144 21.8324C12.622 21.4452 12.4464 20.8016 12.5414 20.4496C12.6516 20.0438 12.4395 20.2886 12.8011 20.2084C12.9919 20.1655 13.7798 20.3045 14.0174 20.3542C14.3948 20.4331 14.6028 20.6688 14.9004 20.9073C15.6828 21.5372 16.5444 22.0246 17.4212 22.5072C18.1003 22.8847 18.3001 23.3624 17.8662 24.1403ZM13.0724 5.09058C13.3989 5.41069 13.7061 5.78957 14.193 5.82137C14.6538 5.85248 15.0884 5.6022 15.4907 5.91678C15.937 6.26247 16.2586 6.70012 16.8509 6.80797C17.424 6.91237 18.0308 6.57636 18.1727 5.98799C18.3104 5.42728 18.0136 4.81748 17.9957 4.2547C17.9957 4.17657 18.0377 3.8295 17.9839 3.77073C17.944 3.72648 17.6106 3.77626 17.5597 3.77764C17.1864 3.78871 16.814 3.81452 16.4425 3.85508C15.0883 4.00221 13.7621 4.3433 12.5042 4.86795C12.6716 4.98411 12.8817 5.03043 13.0724 5.09058ZM24.9149 8.97477C25.4996 8.97477 26.0933 8.71204 25.9046 8.0331C25.7462 7.4641 25.4762 6.84669 24.8191 7.15367C24.4011 7.34864 23.8087 7.84505 23.7598 8.33731C23.704 8.89595 24.525 8.97477 24.9149 8.97477ZM24.4479 11.9456C25.045 12.3045 25.9308 12.1358 26.3812 11.6235C26.7332 11.2225 26.9405 10.5262 27.5735 10.5269C27.8521 10.5263 28.1198 10.6359 28.3187 10.8318C28.5804 11.1035 28.5288 11.3587 28.5846 11.6988C28.7092 12.4628 29.5254 11.7424 29.7382 11.4465C29.876 11.2536 30.0626 10.9673 29.9999 10.7164C29.9421 10.482 29.6693 10.2324 29.5481 10.0174C29.1941 9.39513 28.9028 8.67125 28.3724 8.16862C27.8621 7.68465 27.2346 7.74065 26.7504 8.24329C26.3537 8.65811 25.8929 8.98652 25.6215 9.49123C25.4301 9.84591 25.2145 10.0153 24.8267 10.1073C24.6132 10.1577 24.3694 10.1764 24.1903 10.3202C23.6916 10.7143 23.9754 11.6608 24.4479 11.9456Z" fill="#DB5E00"/>
</svg>
