<svg width="36" height="37" viewBox="0 0 36 37" fill="none" xmlns="http://www.w3.org/2000/svg">
<path d="M7.14549 27.2116H9.3495V29.6115H4.94147V5.61234H2.73746V32.0114H9.3495V34.4114H0.533447V3.21242H4.94147V0.8125H11.5535C12.5637 0.8125 13.5337 0.981244 14.4635 1.31873C15.3933 1.65622 16.26 2.16245 17.0635 2.83743C17.8556 2.16245 18.7166 1.65622 19.6464 1.31873C20.5762 0.981244 21.5519 0.8125 22.5736 0.8125H29.1856V3.21242H33.5936V18.5681L31.3896 17.4807V5.61234H29.1856V16.3932L26.9816 15.287V3.21242H22.5736C21.7586 3.21242 20.978 3.36241 20.2318 3.6624C19.4857 3.96239 18.7969 4.40613 18.1656 4.99361V16.3932L15.9615 17.4807V4.99361C15.3417 4.41863 14.6586 3.98114 13.9125 3.68115C13.1663 3.38116 12.38 3.22492 11.5535 3.21242H7.14549V27.2116ZM31.3896 31.9927L23.6756 36.2113L15.9615 31.9927C15.9615 31.5427 15.9673 31.0677 15.9788 30.5677C15.9902 30.0678 16.0362 29.5615 16.1165 29.049C16.1969 28.5366 16.3117 28.0553 16.4609 27.6053C16.6101 27.1554 16.8167 26.7366 17.0808 26.3491L13.7575 24.6992V35.6113H11.5535V23.6117L23.6756 17.6119L35.7977 23.6117L30.2704 26.3491L30.4082 26.5554C30.6492 26.9429 30.8329 27.3616 30.9592 27.8116C31.0854 28.2616 31.183 28.7178 31.2519 29.1803C31.3208 29.6428 31.3609 30.1178 31.3724 30.6052C31.3839 31.0927 31.3896 31.5552 31.3896 31.9927ZM23.6756 20.2368L16.8741 23.6117L23.6756 26.9866L30.477 23.6117L23.6756 20.2368ZM23.6756 33.5301L29.1856 30.5115C29.1741 30.1865 29.1512 29.8928 29.1167 29.6303C29.0823 29.3678 29.0192 29.1115 28.9273 28.8616C28.8355 28.6116 28.7437 28.3678 28.6518 28.1303C28.56 27.8928 28.428 27.6303 28.2558 27.3429L23.6756 29.6115L19.0954 27.3429C18.9232 27.6428 18.7854 27.9116 18.6821 28.1491C18.5788 28.3866 18.487 28.6241 18.4066 28.8616C18.3263 29.099 18.2746 29.349 18.2516 29.6115C18.2287 29.874 18.2057 30.1803 18.1828 30.5302L23.6756 33.5301Z" fill="#DB5E00"/>
</svg>
