<svg width="24" height="25" viewBox="0 0 24 25" fill="none" xmlns="http://www.w3.org/2000/svg">
<path d="M20.0524 3.17969H3.94765C3.70178 3.19629 3.47027 3.30146 3.29602 3.47571C3.12177 3.64996 3.0166 3.88147 3 4.12733V20.232C3.00139 20.4829 3.10168 20.7232 3.2791 20.9006C3.45651 21.078 3.69674 21.1783 3.94765 21.1797H12.5686V14.1692H10.2942V11.5169H12.6628V9.52733C12.6118 9.05021 12.6666 8.56769 12.8233 8.11416C12.9801 7.66063 13.2349 7.24726 13.5697 6.90348C13.9045 6.5597 14.311 6.29399 14.7602 6.12526C15.2094 5.95654 15.6903 5.88896 16.1686 5.92733C17.1162 5.92733 17.9686 6.02157 18.2524 6.02157V8.48545H16.8314C15.6942 8.48545 15.5047 9.05404 15.5047 9.81216V11.5169H18.1571L17.778 14.2645H15.4105V21.1797H20.0524C20.3033 21.1783 20.5435 21.078 20.7209 20.9006C20.8983 20.7232 20.9986 20.4829 21 20.232V4.12733C20.9834 3.88147 20.8782 3.64996 20.704 3.47571C20.5297 3.30146 20.2982 3.19629 20.0524 3.17969V3.17969Z" fill="#323232"/>
</svg>
