<svg width="14" height="15" viewBox="0 0 14 15" fill="none" xmlns="http://www.w3.org/2000/svg">
<path d="M1.06529 14.1509L1.12492 9.02277M1.12492 9.02277L3.18679 8.73004C4.56479 8.53427 5.98953 8.65152 7.28731 9.06749C8.6935 9.51802 10.2457 9.61705 11.7235 9.35051L11.9022 9.31861C12.156 9.27294 12.3821 9.16322 12.5446 9.00689C12.707 8.85056 12.7966 8.6566 12.799 8.45585L12.8539 3.73348C12.8552 3.61667 12.8219 3.50099 12.7565 3.39524C12.6911 3.28948 12.5954 3.19642 12.4766 3.12311C12.3577 3.04981 12.2189 2.99818 12.0707 2.97216C11.9224 2.94613 11.7686 2.94639 11.621 2.9729C10.2585 3.2184 8.82749 3.12683 7.53123 2.71122L7.36185 2.65732C6.0643 2.24152 4.63989 2.12428 3.26216 2.31988L1.19945 2.6126M1.12492 9.02277L1.14728 7.09972M1.19945 2.6126L1.21436 1.33057M1.19945 2.6126L1.17709 4.53565" stroke="black" stroke-opacity="0.55" stroke-width="1.25" stroke-linecap="round"/>
</svg>
