<svg width="60" height="60" viewBox="0 0 60 60" fill="none" xmlns="http://www.w3.org/2000/svg">
<path d="M29.6876 50C29.8543 50 30.0209 49.9583 30.1876 49.875C30.3543 49.7917 30.4793 49.7083 30.5626 49.625L51.0626 29.125C51.5626 28.625 51.9276 28.0625 52.1576 27.4375C52.3876 26.8125 52.5018 26.1875 52.5001 25.5625C52.5001 24.8958 52.3851 24.26 52.1551 23.655C51.9251 23.05 51.5609 22.5192 51.0626 22.0625L40.4376 11.4375C39.9793 10.9375 39.4476 10.5725 38.8426 10.3425C38.2376 10.1125 37.6034 9.99833 36.9401 10C36.3151 10 35.6901 10.115 35.0651 10.345C34.4401 10.575 33.8776 10.9392 33.3776 11.4375L32.6901 12.125L37.3151 16.8125C37.9401 17.3958 38.3984 18.0625 38.6901 18.8125C38.9818 19.5625 39.1276 20.3542 39.1276 21.1875C39.1276 22.9375 38.5343 24.4067 37.3476 25.595C36.1609 26.7833 34.6918 27.3767 32.9401 27.375C32.1068 27.375 31.3043 27.2292 30.5326 26.9375C29.7609 26.6458 29.0843 26.2083 28.5026 25.625L23.8126 21L12.8751 31.9375C12.7501 32.0625 12.6559 32.1983 12.5926 32.345C12.5293 32.4917 12.4984 32.6467 12.5001 32.81C12.5001 33.1433 12.6251 33.4458 12.8751 33.7175C13.1251 33.9892 13.4168 34.1242 13.7501 34.1225C13.9168 34.1225 14.0834 34.0808 14.2501 33.9975C14.4168 33.9142 14.5418 33.8308 14.6251 33.7475L23.1251 25.2475L26.6251 28.7475L18.1876 37.2475C18.0626 37.3725 17.9684 37.5083 17.9051 37.655C17.8418 37.8017 17.8109 37.9575 17.8126 38.1225C17.8126 38.4558 17.9376 38.7475 18.1876 38.9975C18.4376 39.2475 18.7293 39.3725 19.0626 39.3725C19.2293 39.3725 19.3959 39.3308 19.5626 39.2475C19.7293 39.1642 19.8543 39.0808 19.9376 38.9975L28.4376 30.56L31.9376 34.06L23.5001 42.56C23.3751 42.6433 23.2809 42.7683 23.2176 42.935C23.1543 43.1017 23.1234 43.2683 23.1251 43.435C23.1251 43.7683 23.2501 44.06 23.5001 44.31C23.7501 44.56 24.0418 44.685 24.3751 44.685C24.5418 44.685 24.6984 44.6533 24.8451 44.59C24.9918 44.5267 25.1268 44.4333 25.2501 44.31L33.7501 35.8725L37.2501 39.3725L28.7501 47.8725C28.6251 47.9975 28.5309 48.1325 28.4676 48.2775C28.4043 48.4225 28.3734 48.5792 28.3751 48.7475C28.3751 49.0808 28.5109 49.3725 28.7826 49.6225C29.0543 49.8725 29.3559 50 29.6876 50ZM29.6251 55C28.0834 55 26.7184 54.4892 25.5301 53.4675C24.3418 52.4458 23.6443 51.165 23.4376 49.625C22.0209 49.4167 20.8334 48.8333 19.8751 47.875C18.9168 46.9167 18.3334 45.7292 18.1251 44.3125C16.7084 44.1042 15.5309 43.51 14.5926 42.53C13.6543 41.55 13.0818 40.3733 12.8751 39C11.2918 38.7917 10.0001 38.1042 9.0001 36.9375C8.0001 35.7708 7.5001 34.3958 7.5001 32.8125C7.5001 31.9792 7.65676 31.1775 7.9701 30.4075C8.28343 29.6375 8.73093 28.96 9.3126 28.375L23.8126 13.9375L32.0001 22.125C32.0834 22.25 32.2084 22.3442 32.3751 22.4075C32.5418 22.4708 32.7084 22.5017 32.8751 22.5C33.2501 22.5 33.5626 22.3858 33.8126 22.1575C34.0626 21.9292 34.1876 21.6267 34.1876 21.25C34.1876 21.0833 34.1559 20.9167 34.0926 20.75C34.0293 20.5833 33.9359 20.4583 33.8126 20.375L24.8751 11.4375C24.4168 10.9375 23.8859 10.5725 23.2826 10.3425C22.6793 10.1125 22.0434 9.99833 21.3751 10C20.7501 10 20.1251 10.115 19.5001 10.345C18.8751 10.575 18.3126 10.9392 17.8126 11.4375L9.0001 20.3125C8.6251 20.6875 8.3126 21.125 8.0626 21.625C7.8126 22.125 7.64593 22.625 7.5626 23.125C7.47926 23.625 7.47926 24.1358 7.5626 24.6575C7.64593 25.1792 7.8126 25.6683 8.0626 26.125L4.4376 29.75C3.72926 28.7917 3.20843 27.74 2.8751 26.595C2.54176 25.45 2.41676 24.2933 2.5001 23.125C2.58343 21.9583 2.8751 20.8225 3.3751 19.7175C3.8751 18.6125 4.5626 17.6233 5.4376 16.75L14.2501 7.9375C15.2501 6.97917 16.3651 6.25 17.5951 5.75C18.8251 5.25 20.0851 5 21.3751 5C22.6668 5 23.9276 5.25 25.1576 5.75C26.3876 6.25 27.4809 6.97917 28.4376 7.9375L29.1251 8.625L29.8126 7.9375C30.8126 6.97917 31.9276 6.25 33.1576 5.75C34.3876 5.25 35.6476 5 36.9376 5C38.2293 5 39.4901 5.25 40.7201 5.75C41.9501 6.25 43.0434 6.97917 44.0001 7.9375L54.5626 18.5C55.5209 19.4583 56.2501 20.5625 56.7501 21.8125C57.2501 23.0625 57.5001 24.3333 57.5001 25.625C57.5001 26.9167 57.2501 28.1775 56.7501 29.4075C56.2501 30.6375 55.5209 31.7308 54.5626 32.6875L34.0626 53.125C33.4793 53.7083 32.8018 54.1667 32.0301 54.5C31.2584 54.8333 30.4568 55 29.6251 55Z" fill="#DB5E00"/>
</svg>
