<svg width="24" height="25" viewBox="0 0 24 25" fill="none" xmlns="http://www.w3.org/2000/svg">
<path fill-rule="evenodd" clip-rule="evenodd" d="M1.25 7.63423C1.25 4.22002 4.04033 1.42969 7.45455 1.42969H16.5455C19.9597 1.42969 22.75 4.22002 22.75 7.63423V16.7251C22.75 20.1394 19.9597 22.9297 16.5455 22.9297H7.45455C4.04033 22.9297 1.25 20.1394 1.25 16.7251V7.63423ZM7.45455 2.92969C4.86876 2.92969 2.75 5.04845 2.75 7.63423V16.7251C2.75 19.3109 4.86876 21.4297 7.45455 21.4297H16.5455C19.1312 21.4297 21.25 19.3109 21.25 16.7251V7.63423C21.25 5.04845 19.1312 2.92969 16.5455 2.92969H7.45455ZM12 15.6797C13.933 15.6797 15.5 14.1127 15.5 12.1797C15.5 10.2467 13.933 8.67969 12 8.67969C10.067 8.67969 8.5 10.2467 8.5 12.1797C8.5 14.1127 10.067 15.6797 12 15.6797ZM12 17.1797C14.7614 17.1797 17 14.9411 17 12.1797C17 9.41826 14.7614 7.17969 12 7.17969C9.23858 7.17969 7 9.41826 7 12.1797C7 14.9411 9.23858 17.1797 12 17.1797ZM17 7.17969C17.5523 7.17969 18 6.73197 18 6.17969C18 5.6274 17.5523 5.17969 17 5.17969C16.4477 5.17969 16 5.6274 16 6.17969C16 6.73197 16.4477 7.17969 17 7.17969Z" fill="#323232"/>
</svg>
