<svg width="20" height="25" viewBox="0 0 20 25" fill="none" xmlns="http://www.w3.org/2000/svg">
<g clip-path="url(#clip0_711_4482)">
<path d="M15.6555 12.7691L11.9649 10.7845C11.7976 10.6985 11.6152 10.6639 11.434 10.6839C11.2529 10.7039 11.0787 10.7777 10.9274 10.8988C10.912 10.9107 10.8974 10.9238 10.8836 10.9382L8.9547 12.907C8.93468 12.9201 8.9124 12.9274 8.88962 12.9284C8.86684 12.9293 8.84419 12.9239 8.82345 12.9126C7.5836 12.1945 6.29923 10.6626 5.69845 9.1954C5.68844 9.17088 5.68324 9.14394 5.68324 9.11664C5.68324 9.08935 5.68844 9.06241 5.69845 9.0379L7.34454 6.69415C7.35635 6.6768 7.36731 6.65865 7.37735 6.63977C7.47687 6.45743 7.53699 6.24822 7.55226 6.03102C7.56754 5.81383 7.5375 5.59548 7.46485 5.39571L5.82267 0.974458C5.72941 0.713467 5.56812 0.49581 5.36302 0.354156C5.15793 0.212503 4.92007 0.154493 4.68517 0.188833C3.66425 0.349892 2.72713 0.951525 2.04893 1.8813C1.37074 2.81108 0.997869 4.00538 1.00001 5.24102C1.00001 12.5816 5.97657 18.5535 12.0938 18.5535C13.1234 18.5559 14.1186 18.1084 14.8934 17.2946C15.6681 16.4808 16.1695 15.3564 16.3039 14.1313C16.3325 13.8508 16.2848 13.5666 16.168 13.3212C16.0511 13.0758 15.8714 12.8821 15.6555 12.7691ZM12.0938 17.4285C6.49376 17.4285 1.93751 11.961 1.93751 5.24102C1.9349 4.27908 2.22423 3.3489 2.75145 2.62428C3.27867 1.89966 4.00771 1.43017 4.80235 1.30352H4.82032C4.8518 1.30423 4.88238 1.31633 4.90803 1.33824C4.93368 1.36016 4.95321 1.39086 4.96407 1.42633L6.61251 5.8429C6.62191 5.86745 6.62678 5.89415 6.62678 5.92118C6.62678 5.9482 6.62191 5.9749 6.61251 5.99946L4.96329 8.34883C4.95099 8.3656 4.93976 8.38347 4.9297 8.40227C4.8265 8.59132 4.76573 8.80915 4.75327 9.03466C4.74082 9.26017 4.7771 9.48571 4.8586 9.68946C5.55157 11.392 6.98126 13.0945 8.41563 13.926C8.58641 14.0233 8.77528 14.0658 8.96382 14.0493C9.15237 14.0329 9.33414 13.9581 9.49142 13.8323C9.50626 13.8201 9.5211 13.807 9.53516 13.7929L11.4633 11.8241C11.4823 11.8119 11.5034 11.8047 11.5249 11.8031C11.5465 11.8014 11.5681 11.8054 11.5883 11.8148L15.2797 13.7995C15.3098 13.8149 15.3352 13.8413 15.3522 13.8749C15.3691 13.9086 15.3768 13.9478 15.3742 13.987C15.2692 14.941 14.8784 15.8165 14.2746 16.4498C13.6709 17.0832 12.8957 17.4311 12.0938 17.4285Z" fill="#FFCC00"/>
</g>
<defs>
<clipPath id="clip0_711_4482">
<rect width="20" height="24" fill="white" transform="translate(0 0.179199)"/>
</clipPath>
</defs>
</svg>
