<svg width="60" height="60" viewBox="0 0 60 60" fill="none" xmlns="http://www.w3.org/2000/svg">
<g clip-path="url(#clip0_711_4536)">
<path d="M30.2587 -9.91806e-05C31.2412 -9.91806e-05 32.2087 0.0636508 33.1087 0.213651C33.9951 0.329798 34.8697 0.52303 35.7225 0.791151C36.5775 1.0499 37.4137 1.3724 38.25 1.7774C39.0637 2.16365 39.9 2.63615 40.7362 3.1499C42.15 4.0499 43.5412 4.7774 44.9587 5.35865C47.7492 6.47552 50.7001 7.14012 53.7 7.3274C55.2225 7.43615 56.7862 7.4999 58.4137 7.4999V22.4999C58.4137 25.3499 58.05 28.0499 57.3225 30.6224C56.6236 33.1582 55.6306 35.6036 54.3637 37.9087C53.1021 40.2105 51.6094 42.3779 49.9087 44.3774C48.1819 46.4223 46.3122 48.3421 44.3137 50.1224C42.2888 51.9079 40.156 53.5673 37.9275 55.0912C35.7 56.6362 33.45 58.0724 31.2 59.3774L30.3 59.9137L29.4 59.3774C27.087 58.0383 24.8277 56.6084 22.6275 55.0912C20.3864 53.5845 18.2526 51.9242 16.2412 50.1224C14.2439 48.3421 12.3755 46.4222 10.65 44.3774C8.95381 42.3695 7.45443 40.2033 6.17246 37.9087C4.92721 35.5933 3.93522 33.1504 3.21371 30.6224C2.4816 27.9777 2.12065 25.244 2.14121 22.4999V7.4999C3.77246 7.4999 5.33621 7.43615 6.85871 7.3274C8.35744 7.2233 9.84647 7.00897 11.3137 6.68615C12.75 6.36365 14.1862 5.93615 15.6 5.35865C17.067 4.76658 18.4735 4.03444 19.8 3.1724C21.45 2.0999 23.1225 1.30865 24.7725 0.787401C26.5495 0.242644 28.4002 -0.0230173 30.2587 -9.91806e-05ZM54.6412 11.1862C51.8026 11.0484 48.9904 10.5738 46.2637 9.7724C43.5515 8.96336 40.9681 7.77268 38.5912 6.23615C37.3583 5.42689 36.0194 4.79212 34.6125 4.3499C33.2071 3.92516 31.7456 3.71529 30.2775 3.7274C28.7985 3.71783 27.3262 3.92762 25.9087 4.3499C24.4997 4.77774 23.1625 5.4135 21.9412 6.23615C19.5602 7.78106 16.9701 8.97696 14.25 9.7874C11.5912 10.5599 8.80871 11.0324 5.89121 11.2049V22.5187C5.89121 25.0049 6.21371 27.3824 6.85871 29.6737C7.51581 31.945 8.42128 34.137 9.55871 36.2099C10.7098 38.3044 12.0665 40.2791 13.6087 42.1049C15.1725 43.9462 16.8412 45.6599 18.6412 47.2874C20.4412 48.9187 22.3275 50.4187 24.3 51.8099C26.2912 53.2049 28.2862 54.4687 30.2775 55.6237C32.3164 54.4367 34.3044 53.1643 36.2362 51.8099C38.2217 50.423 40.118 48.9125 41.9137 47.2874C43.7137 45.6599 45.3862 43.9462 46.95 42.1049C48.4924 40.2793 49.8491 38.3045 51 36.2099C52.1324 34.1396 53.0244 31.9466 53.6587 29.6737C54.3233 27.3472 54.6541 24.9381 54.6412 22.5187V11.1862Z" fill="#DB5E00"/>
<path fill-rule="evenodd" clip-rule="evenodd" d="M44.2387 17.6587L42.5887 16.2412L41.0662 16.3725L24.7162 35.6775L19.1475 27.7275L17.6475 27.4725L15.9112 28.7137L15.6525 30.2137L22.8112 40.4362L23.625 40.8862L25.3387 40.9912L26.2162 40.6087L44.3475 19.1775L44.2387 17.6587Z" fill="#DB5E00"/>
</g>
<defs>
<clipPath id="clip0_711_4536">
<rect width="60" height="60" fill="white"/>
</clipPath>
</defs>
</svg>
