<svg width="99" height="99" viewBox="0 0 99 99" fill="none" xmlns="http://www.w3.org/2000/svg">
<g filter="url(#filter0_d_711_4227)">
<circle cx="49.7561" cy="45.5" r="45" fill="#F9E1CF"/>
</g>
<path d="M63.1441 42.125C63.5574 42.1251 63.9563 42.2768 64.2652 42.5515C64.5741 42.8261 64.7714 43.2046 64.8197 43.6151L64.8316 43.8125V52.25C64.8316 53.9818 64.166 55.6473 62.9724 56.9021C61.7789 58.1569 60.1487 58.905 58.4191 58.9916L58.0816 59H36.1441C35.8294 59.0001 35.5209 58.9122 35.2536 58.7462C34.9862 58.5803 34.7706 58.3428 34.631 58.0608C34.4915 57.7787 34.4336 57.4632 34.4639 57.15C34.4942 56.8368 34.6115 56.5383 34.8025 56.2882L34.951 56.1194L40.0135 51.0569C40.3172 50.7543 40.7247 50.5786 41.1532 50.5655C41.5817 50.5524 41.9992 50.7029 42.3208 50.9865C42.6424 51.27 42.8439 51.6654 42.8846 52.0922C42.9253 52.519 42.8019 52.9453 42.5397 53.2844L42.3996 53.4431L40.2177 55.625H58.0816C58.933 55.6253 59.7531 55.3037 60.3775 54.7247C61.0018 54.1458 61.3843 53.3522 61.4481 52.5031L61.4566 52.25V43.8125C61.4566 43.3649 61.6343 42.9357 61.9508 42.6193C62.2673 42.3028 62.6965 42.125 63.1441 42.125ZM63.1441 32C63.4587 31.9999 63.7672 32.0878 64.0346 32.2538C64.3019 32.4197 64.5176 32.6572 64.6571 32.9392C64.7966 33.2213 64.8545 33.5368 64.8242 33.85C64.7939 34.1632 64.6766 34.4617 64.4856 34.7118L64.3371 34.8806L59.2746 39.9431C58.9709 40.2457 58.5634 40.4214 58.1349 40.4345C57.7064 40.4476 57.2889 40.2971 56.9673 40.0135C56.6458 39.73 56.4442 39.3346 56.4035 38.9078C56.3629 38.481 56.4862 38.0547 56.7484 37.7156L56.8885 37.5569L59.0704 35.375H41.2066C40.3554 35.3752 39.5357 35.6969 38.9117 36.2758C38.2877 36.8548 37.9055 37.6481 37.8417 38.4969L37.8316 38.75V47.1875C37.8311 47.6176 37.6664 48.0313 37.3711 48.3441C37.0759 48.6568 36.6723 48.845 36.243 48.8702C35.8136 48.8954 35.3908 48.7557 35.061 48.4797C34.7311 48.2036 34.5192 47.812 34.4684 47.3849L34.4566 47.1875V38.75C34.4566 37.0182 35.1222 35.3527 36.3157 34.0979C37.5093 32.8431 39.1394 32.095 40.8691 32.0084L41.2066 32H63.1441Z" fill="#DB5E00"/>
<defs>
<filter id="filter0_d_711_4227" x="0.756104" y="0.5" width="98" height="98" filterUnits="userSpaceOnUse" color-interpolation-filters="sRGB">
<feFlood flood-opacity="0" result="BackgroundImageFix"/>
<feColorMatrix in="SourceAlpha" type="matrix" values="0 0 0 0 0 0 0 0 0 0 0 0 0 0 0 0 0 0 127 0" result="hardAlpha"/>
<feOffset dy="4"/>
<feGaussianBlur stdDeviation="2"/>
<feComposite in2="hardAlpha" operator="out"/>
<feColorMatrix type="matrix" values="0 0 0 0 0 0 0 0 0 0 0 0 0 0 0 0 0 0 0.25 0"/>
<feBlend mode="normal" in2="BackgroundImageFix" result="effect1_dropShadow_711_4227"/>
<feBlend mode="normal" in="SourceGraphic" in2="effect1_dropShadow_711_4227" result="shape"/>
</filter>
</defs>
</svg>
