<svg width="36" height="37" viewBox="0 0 36 37" fill="none" xmlns="http://www.w3.org/2000/svg">
<g clip-path="url(#clip0_711_4436)">
<path d="M10.4877 27.528V26.0531C10.4877 24.0972 11.2617 22.2214 12.6395 20.8383C14.0173 19.4553 15.8859 18.6783 17.8344 18.6783M17.8344 18.6783C19.7829 18.6783 21.6515 19.4553 23.0293 20.8383C24.4071 22.2214 25.1811 24.0972 25.1811 26.0531V27.528M17.8344 18.6783C19.0035 18.6783 20.1247 18.2121 20.9513 17.3823C21.778 16.5525 22.2424 15.427 22.2424 14.2535C22.2424 13.0799 21.778 11.9544 20.9513 11.1246C20.1247 10.2948 19.0035 9.82861 17.8344 9.82861C16.6653 9.82861 15.5441 10.2948 14.7174 11.1246C13.8908 11.9544 13.4264 13.0799 13.4264 14.2535C13.4264 15.427 13.8908 16.5525 14.7174 17.3823C15.5441 18.2121 16.6653 18.6783 17.8344 18.6783ZM1.67163 27.528V26.0531C1.67163 24.8795 2.13605 23.754 2.96271 22.9242C3.78938 22.0944 4.91058 21.6282 6.07966 21.6282M6.07966 21.6282C6.85904 21.6282 7.60651 21.3174 8.15762 20.7642C8.70873 20.211 9.01834 19.4607 9.01834 18.6783C9.01834 17.896 8.70873 17.1456 8.15762 16.5924C7.60651 16.0392 6.85904 15.7284 6.07966 15.7284C5.30027 15.7284 4.5528 16.0392 4.00169 16.5924C3.45058 17.1456 3.14097 17.896 3.14097 18.6783C3.14097 19.4607 3.45058 20.211 4.00169 20.7642C4.5528 21.3174 5.30027 21.6282 6.07966 21.6282ZM33.9971 27.528V26.0531C33.9971 24.8795 33.5327 23.754 32.7061 22.9242C31.8794 22.0944 30.7582 21.6282 29.5891 21.6282M29.5891 21.6282C30.3685 21.6282 31.116 21.3174 31.6671 20.7642C32.2182 20.211 32.5278 19.4607 32.5278 18.6783C32.5278 17.896 32.2182 17.1456 31.6671 16.5924C31.116 16.0392 30.3685 15.7284 29.5891 15.7284C28.8097 15.7284 28.0623 16.0392 27.5112 16.5924C26.9601 17.1456 26.6504 17.896 26.6504 18.6783C26.6504 19.4607 26.9601 20.211 27.5112 20.7642C28.0623 21.3174 28.8097 21.6282 29.5891 21.6282Z" stroke="#DB5E00" stroke-width="2.21243" stroke-linecap="round" stroke-linejoin="round"/>
</g>
<defs>
<clipPath id="clip0_711_4436">
<rect width="35.2642" height="35.3988" fill="white" transform="translate(0.202148 0.979004)"/>
</clipPath>
</defs>
</svg>
