<svg width="272" height="27" viewBox="0 0 272 27" fill="none" xmlns="http://www.w3.org/2000/svg">
<path d="M1.92285 23.9971C1.64381 24.0923 1.45219 24.3742 1.49486 24.6267C1.53753 24.8792 1.79832 25.0067 2.07736 24.9115L1.92285 23.9971ZM271.07 24.4543L268.334 20.1061L265.173 25.394L271.07 24.4543ZM2.07736 24.9115C3.12613 24.5536 4.17681 24.1994 5.22935 23.849L5.08372 22.9316C4.02822 23.283 2.97458 23.6382 1.92285 23.9971L2.07736 24.9115ZM11.5472 21.7984C13.6509 21.133 15.7617 20.4827 17.8793 19.8477L17.769 18.9191C15.6455 19.5559 13.5288 20.208 11.4192 20.8752L11.5472 21.7984ZM24.2229 17.997C26.3346 17.3981 28.4528 16.8143 30.577 16.2459L30.5015 15.3074C28.3714 15.8774 26.2475 16.4628 24.13 17.0634L24.2229 17.997ZM36.9386 14.5944C39.0557 14.0616 41.1786 13.544 43.3069 13.042L43.2659 12.0949C41.1318 12.5983 39.0032 13.1172 36.8804 13.6515L36.9386 14.5944ZM49.6792 11.5887C51.7992 11.1218 53.9243 10.6703 56.0542 10.2343L56.0472 9.27967C53.9116 9.71683 51.7809 10.1696 49.6553 10.6377L49.6792 11.5887ZM62.4302 8.97836C64.5506 8.57706 66.6755 8.1912 68.8046 7.82093L68.8313 6.85996C66.6965 7.2312 64.566 7.61808 62.4401 8.02044L62.4302 8.97836ZM75.1775 6.7614C77.296 6.42539 79.4183 6.10486 81.5444 5.79999L81.6043 4.83375C79.4727 5.13941 77.3448 5.46077 75.2209 5.79766L75.1775 6.7614ZM87.9078 4.9358C90.022 4.66472 92.1395 4.40917 94.2603 4.16933L94.353 3.19887C92.2268 3.43933 90.1038 3.69554 87.9841 3.96732L87.9078 4.9358ZM100.606 3.49955C102.714 3.29294 104.826 3.10191 106.94 2.92663L107.065 1.95299C104.945 2.12872 102.829 2.32024 100.715 2.52738L100.606 3.49955ZM113.261 2.45002C115.362 2.30748 117.465 2.18056 119.57 2.06941L119.727 1.09361C117.617 1.20503 115.508 1.33227 113.403 1.47517L113.261 2.45002ZM125.861 1.78459C127.952 1.7057 130.044 1.64246 132.138 1.59502L132.327 0.618019C130.228 0.665583 128.13 0.728982 126.034 0.808069L125.861 1.78459ZM138.395 1.50045C139.435 1.49258 140.476 1.48863 141.518 1.48863L141.73 0.511369C140.686 0.511369 139.642 0.515322 138.599 0.523212L138.395 1.50045ZM141.518 1.48863C142.559 1.48863 143.598 1.49258 144.635 1.50045L144.855 0.523212C143.815 0.515322 142.774 0.511369 141.73 0.511369L141.518 1.48863ZM150.851 1.59502C152.924 1.64246 154.989 1.7057 157.045 1.78459L157.296 0.808068C155.235 0.728981 153.165 0.665582 151.086 0.618018L150.851 1.59502ZM163.213 2.06941C165.27 2.18056 167.318 2.30748 169.357 2.45002L169.639 1.47517C167.595 1.33227 165.542 1.20503 163.48 1.09361L163.213 2.06941ZM175.472 2.92663C177.51 3.10191 179.538 3.29294 181.557 3.49955L181.869 2.52738C179.846 2.32024 177.812 2.12872 175.769 1.95299L175.472 2.92663ZM187.612 4.16933C189.629 4.40918 191.635 4.66472 193.632 4.93581L193.976 3.96732C191.974 3.69554 189.962 3.43933 187.94 3.19887L187.612 4.16933ZM199.62 5.8C201.614 6.10487 203.597 6.42539 205.57 6.76141L205.945 5.79766C203.967 5.46077 201.978 5.13941 199.98 4.83375L199.62 5.8ZM211.483 7.82094C213.451 8.1912 215.409 8.57707 217.355 8.97837L217.761 8.02045C215.81 7.61809 213.847 7.23121 211.873 6.85997L211.483 7.82094ZM223.186 10.2343C225.127 10.6703 227.056 11.1218 228.973 11.5887L229.41 10.6377C227.488 10.1696 225.553 9.71683 223.607 9.27967L223.186 10.2343ZM234.715 13.042C236.626 13.544 238.524 14.0616 240.41 14.5944L240.877 13.6515C238.986 13.1172 237.083 12.5983 235.167 12.0949L234.715 13.042ZM246.055 16.2459C247.932 16.8143 249.797 17.3981 251.649 17.997L252.147 17.0634C250.29 16.4628 248.42 15.8774 246.537 15.3075L246.055 16.2459ZM257.189 19.8477C259.032 20.4827 260.86 21.133 262.675 21.7984L263.204 20.8752C261.384 20.208 259.55 19.5559 257.703 18.9191L257.189 19.8477ZM1.84559 23.5399C1.28752 23.7304 0.904282 24.2942 0.989615 24.7992C1.07495 25.3042 1.59653 25.5592 2.15461 25.3687L1.84559 23.5399ZM271.07 24.4543L265.598 15.7578L259.276 26.3337L271.07 24.4543ZM2.15461 25.3687C3.2019 25.0113 4.2511 24.6576 5.30217 24.3077L5.0109 22.4729C3.95392 22.8248 2.89881 23.1805 1.84559 23.5399L2.15461 25.3687ZM11.6111 22.2599C13.712 21.5955 15.8198 20.9461 17.9345 20.3119L17.7138 18.4549C15.5874 19.0925 13.4678 19.7455 11.3552 20.4137L11.6111 22.2599ZM24.2693 18.4638C26.3782 17.8657 28.4934 17.2827 30.6148 16.7151L30.4637 14.8382C28.3308 15.409 26.204 15.9951 24.0835 16.5966L24.2693 18.4638ZM36.9677 15.0658C39.082 14.5337 41.202 14.0169 43.3275 13.5155L43.2454 11.6213C41.1084 12.1254 38.977 12.645 36.8512 13.18L36.9677 15.0658ZM49.6912 12.0642C51.8084 11.5979 53.9306 11.147 56.0577 10.7116L56.0437 8.80237C53.9053 9.24011 51.7717 9.69346 49.6433 10.1622L49.6912 12.0642ZM62.4253 9.45732C64.5428 9.05655 66.6649 8.6712 68.7913 8.30142L68.8446 6.37948C66.7071 6.7512 64.5738 7.13859 62.445 7.54148L62.4253 9.45732ZM75.1559 7.24327C77.2715 6.9077 79.3911 6.58759 81.5144 6.28312L81.6342 4.35063C79.4999 4.65668 77.3693 4.97846 75.2425 5.31579L75.1559 7.24327ZM87.8696 5.42005C89.981 5.14931 92.0959 4.89409 94.2139 4.65455L94.3994 2.71364C92.2705 2.95441 90.1447 3.21095 88.0223 3.48308L87.8696 5.42005ZM100.552 3.98564C102.657 3.77929 104.766 3.58851 106.877 3.41345L107.127 1.46618C105.005 1.64213 102.886 1.83389 100.77 2.04129L100.552 3.98564ZM113.191 2.93744C115.289 2.79508 117.389 2.66832 119.491 2.55732L119.806 0.605703C117.693 0.717267 115.582 0.844667 113.473 0.987752L113.191 2.93744ZM125.775 2.27285C127.863 2.19406 129.953 2.1309 132.044 2.08352L132.421 0.12952C130.319 0.177143 128.219 0.240621 126.121 0.319807L125.775 2.27285ZM138.293 1.98906C139.332 1.9812 140.372 1.97726 141.412 1.97726L141.836 0.0227372C140.791 0.0227372 139.746 0.026696 138.701 0.0345954L138.293 1.98906ZM141.412 1.97726C142.452 1.97726 143.49 1.9812 144.526 1.98906L144.965 0.0345952C143.924 0.0266959 142.881 0.0227372 141.836 0.0227372L141.412 1.97726ZM150.733 2.08351C152.804 2.1309 154.866 2.19406 156.92 2.27285L157.422 0.319807C155.358 0.240621 153.285 0.177142 151.204 0.12952L150.733 2.08351ZM163.08 2.55732C165.134 2.66832 167.18 2.79508 169.216 2.93744L169.78 0.987752C167.733 0.844667 165.677 0.717267 163.613 0.605703L163.08 2.55732ZM175.323 3.41345C177.358 3.58851 179.384 3.77929 181.4 3.98564L182.026 2.04129C179.999 1.83389 177.963 1.64213 175.918 1.46618L175.323 3.41345ZM187.448 4.65456C189.462 4.8941 191.466 5.14931 193.46 5.42005L194.148 3.48308C192.143 3.21095 190.129 2.95441 188.104 2.71364L187.448 4.65456ZM199.44 6.28312C201.432 6.58759 203.412 6.9077 205.382 7.24328L206.132 5.31579C204.152 4.97846 202.161 4.65669 200.159 4.35063L199.44 6.28312ZM211.288 8.30142C213.254 8.6712 215.209 9.05656 217.152 9.45733L217.964 7.54148C216.01 7.1386 214.045 6.75121 212.068 6.37948L211.288 8.30142ZM222.976 10.7116C224.914 11.147 226.84 11.5979 228.755 12.0642L229.628 10.1622C227.703 9.69346 225.766 9.24012 223.818 8.80237L222.976 10.7116ZM234.489 13.5155C236.397 14.0169 238.293 14.5337 240.176 15.0658L241.111 13.18C239.217 12.645 237.311 12.1254 235.393 11.6213L234.489 13.5155ZM245.813 16.7151C247.688 17.2827 249.551 17.8657 251.4 18.4638L252.396 16.5966C250.537 15.9951 248.664 15.409 246.779 14.8382L245.813 16.7151ZM256.933 20.3119C258.772 20.9461 260.598 21.5955 262.411 22.2599L263.468 20.4137C261.645 19.7455 259.809 19.0925 257.959 18.4549L256.933 20.3119Z" fill="#FFCC00"/>
</svg>
