<svg width="36" height="37" viewBox="0 0 36 37" fill="none" xmlns="http://www.w3.org/2000/svg">
<path d="M7.63201 30.165V27.2151H9.98295L12.8849 17.5173C13.0808 16.8781 13.4423 16.3678 13.9693 15.9863C14.4963 15.6048 15.0777 15.4145 15.7134 15.4155H20.1214C20.7581 15.4155 21.34 15.6062 21.867 15.9878C22.394 16.3693 22.755 16.8791 22.9499 17.5173L25.8518 27.2151H28.2028V30.165H7.63201ZM13.0686 27.2151H22.7662L20.1214 18.3654H15.7134L13.0686 27.2151ZM16.4481 12.4656V5.09082H19.3867V12.4656H16.4481ZM25.1906 16.1161L23.0968 14.0143L28.313 8.81507L30.3701 10.88L25.1906 16.1161ZM26.7334 22.7902V19.8403H34.0802V22.7902H26.7334ZM10.6442 16.1161L5.46473 10.88L7.52181 8.81507L12.738 14.0143L10.6442 16.1161ZM1.75464 22.7902V19.8403H9.10135V22.7902H1.75464Z" fill="#DB5E00"/>
</svg>
