<svg width="36" height="36" viewBox="0 0 36 36" fill="none" xmlns="http://www.w3.org/2000/svg">
<path d="M5.70718 14.0039C5.58514 13.8724 5.43723 13.7679 5.27283 13.6968C5.10843 13.6257 4.93111 13.5896 4.75211 13.5909C4.14968 13.5909 3.69418 13.8711 3.40031 14.4464C3.10645 15.0216 3.17991 15.5673 3.6501 16.0836C5.38393 17.647 6.48593 18.7532 6.95612 19.4022C7.55855 20.2282 7.85242 21.4376 7.85242 23.0011C7.85242 24.9333 8.58709 26.364 10.0564 27.3522C10.8793 28.0012 11.7756 28.4879 12.7747 28.8124V23.0748C12.7747 21.6884 12.2898 20.5379 11.3641 19.6087M24.4707 19.6825C23.5597 20.5969 23.0601 21.7326 23.0601 23.0748V28.8714C24.4707 28.3699 25.6462 27.5882 26.6159 26.5557C27.571 25.5233 28.0559 24.3875 28.0559 23.0011C28.0559 21.3344 28.335 20.1397 28.8934 19.4022C29.0256 19.1662 29.2754 18.8712 29.6721 18.5025C30.0101 18.1338 30.3627 17.7798 30.7154 17.4553C31.0533 17.1455 31.3913 16.821 31.7145 16.4966L32.1994 16.0836C32.3308 15.9583 32.4351 15.8072 32.5059 15.6397C32.5766 15.4723 32.6124 15.292 32.6108 15.1101C32.6108 14.6971 32.4786 14.3284 32.1994 14.0334C31.9202 13.7384 31.5823 13.5909 31.1415 13.5909C30.7007 13.5909 30.4068 13.7237 30.1276 14.0039M17.9174 30.0514C18.9313 30.0514 19.9157 29.9186 20.8561 29.6384V24.3728C20.8561 23.5026 20.5916 22.8241 19.9892 22.1751C19.3868 21.5261 18.6962 21.2017 17.9174 21.2017C17.1387 21.2017 16.4481 21.4966 15.8897 22.1014C15.302 22.6766 14.9787 23.3551 14.9787 24.24V29.6384C15.9191 29.9186 16.9036 30.0514 17.9174 30.0514ZM13.5094 13.0894C13.5094 14.3136 12.5249 15.3018 11.3054 15.3018C10.0858 15.3018 9.10136 14.3136 9.10136 13.0894C9.10136 11.8652 10.0858 10.877 11.3054 10.877C12.5249 10.877 13.5094 11.8652 13.5094 13.0894ZM26.7335 13.0894C26.7335 14.3136 25.749 15.3018 24.5295 15.3018C23.3099 15.3018 22.3254 14.3136 22.3254 13.0894C22.3254 11.8652 23.3099 10.877 24.5295 10.877C25.749 10.877 26.7335 11.8652 26.7335 13.0894ZM20.1214 8.66457C20.1214 9.88878 19.137 10.877 17.9174 10.877C16.6979 10.877 15.7134 9.88878 15.7134 8.66457C15.7134 7.44037 16.6979 6.45215 17.9174 6.45215C19.137 6.45215 20.1214 7.44037 20.1214 8.66457ZM20.1214 16.7768C20.1214 18.001 19.137 18.9892 17.9174 18.9892C16.6979 18.9892 15.7134 18.001 15.7134 16.7768C15.7134 15.5526 16.6979 14.5644 17.9174 14.5644C19.137 14.5644 20.1214 15.5526 20.1214 16.7768Z" fill="#DB5E00"/>
</svg>
