<svg width="32" height="30" viewBox="0 0 32 30" fill="none" xmlns="http://www.w3.org/2000/svg">
<path d="M24.8784 28.3895L30.4972 21.9355C30.6626 21.7458 30.7556 21.4884 30.7558 21.2199V12.3558C30.7558 11.6844 30.5236 11.0405 30.1102 10.5657C29.6969 10.0909 29.1363 9.82422 28.5518 9.82422C27.9672 9.82422 27.4066 10.0909 26.9933 10.5657C26.58 11.0405 26.3478 11.6844 26.3478 12.3558V19.9507" stroke="#DB5E00" stroke-width="2.21243" stroke-linecap="round" stroke-linejoin="round"/>
<path d="M24.8784 21.6385L26.1391 20.1904C26.2053 20.1144 26.2578 20.0242 26.2936 19.9248C26.3294 19.8255 26.3478 19.719 26.3477 19.6115C26.3475 19.4597 26.3106 19.311 26.241 19.1819C26.1715 19.0529 26.0721 18.9486 25.9539 18.8807L25.303 18.5077C24.7515 18.191 24.1273 18.0815 23.5187 18.1948C22.9101 18.3081 22.3479 18.6384 21.9118 19.1389L20.5967 20.6494C20.0456 21.2823 19.7358 22.1408 19.7357 23.0359V28.3895M7.24626 28.3895L1.6275 21.9355C1.46212 21.7458 1.3691 21.4884 1.3689 21.2199V12.3558C1.3689 11.6844 1.6011 11.0405 2.01444 10.5657C2.42777 10.0909 2.98837 9.82422 3.57291 9.82422C4.15745 9.82422 4.71805 10.0909 5.13138 10.5657C5.54471 11.0405 5.77692 11.6844 5.77692 12.3558V19.9507" stroke="#DB5E00" stroke-width="2.21243" stroke-linecap="round" stroke-linejoin="round"/>
<path d="M7.2462 21.6387L5.9855 20.1906C5.91933 20.1146 5.86685 20.0244 5.83105 19.925C5.79525 19.8257 5.77683 19.7192 5.77686 19.6117C5.77686 19.3029 5.92967 19.021 6.17064 18.8809L6.82156 18.508C7.37302 18.1912 7.99723 18.0818 8.60584 18.1951C9.21446 18.3083 9.77663 18.6386 10.2128 19.1392L11.5279 20.6497C12.079 21.2826 12.3887 22.141 12.3889 23.0362V28.3897M18.5116 14.8877H13.6129V10.9502H10.1849V5.32326H13.6129V1.38574H18.5116V5.32326H21.9396V10.9502H18.5116V14.8877Z" stroke="#DB5E00" stroke-width="2.21243" stroke-linecap="round" stroke-linejoin="round"/>
</svg>
