<svg width="20" height="20" viewBox="0 0 20 20" fill="none" xmlns="http://www.w3.org/2000/svg">
<path d="M17.15 16.1416L14.6583 9.1749C14.4833 8.71657 14.0917 8.43324 13.6417 8.43324C13.1917 8.43324 12.8083 8.71657 12.6167 9.19157L10.1333 16.1416C10.1027 16.2193 10.088 16.3024 10.09 16.386C10.0921 16.4695 10.1108 16.5518 10.1452 16.6279C10.1796 16.7041 10.2289 16.7726 10.2903 16.8293C10.3516 16.8861 10.4237 16.93 10.5023 16.9584C10.5808 16.9869 10.6643 16.9992 10.7478 16.9948C10.8312 16.9904 10.9129 16.9693 10.9881 16.9328C11.0632 16.8963 11.1303 16.845 11.1853 16.7821C11.2403 16.7192 11.2822 16.6459 11.3083 16.5666L11.825 15.1249H15.45L15.9667 16.5666C16.0583 16.8249 16.3 16.9832 16.5583 16.9832C16.625 16.9832 16.7 16.9749 16.7667 16.9499C16.9225 16.8935 17.0495 16.7775 17.1198 16.6275C17.1901 16.4775 17.198 16.3057 17.1417 16.1499L17.15 16.1416ZM12.2833 13.8666L13.65 10.0416L15.0167 13.8666H12.2833ZM10.1583 6.54157C8.27502 9.51657 6.57502 11.3166 4.50835 12.5166C4.43777 12.5576 4.35979 12.5844 4.27887 12.5953C4.19795 12.6062 4.11568 12.601 4.03674 12.5801C3.95781 12.5592 3.88377 12.523 3.81884 12.4735C3.75392 12.424 3.69938 12.3622 3.65835 12.2916C3.61641 12.2212 3.58893 12.1432 3.57755 12.0621C3.56617 11.981 3.5711 11.8984 3.59206 11.8192C3.61302 11.7401 3.64958 11.6659 3.6996 11.601C3.74962 11.5362 3.81209 11.482 3.88335 11.4416C5.63335 10.4249 7.06668 8.96657 8.67502 6.5499H3.43335C3.09168 6.5499 2.80835 6.26657 2.80835 5.9249C2.80835 5.58324 3.09168 5.2999 3.43335 5.2999H6.55835V3.6499C6.55835 3.30824 6.84168 3.0249 7.18335 3.0249C7.52502 3.0249 7.80835 3.30824 7.80835 3.6499V5.2999H10.9333C11.275 5.2999 11.5583 5.58324 11.5583 5.9249C11.5583 6.26657 11.275 6.5499 10.9333 6.5499H10.15L10.1583 6.54157ZM10.1917 12.5999C10.0833 12.5999 9.97502 12.5749 9.87502 12.5166C9.33335 12.1999 8.80835 11.8499 8.31668 11.4832C8.18407 11.3838 8.09641 11.2357 8.07296 11.0716C8.04952 10.9075 8.09223 10.7408 8.19168 10.6082C8.29114 10.4756 8.4392 10.388 8.60329 10.3645C8.76739 10.3411 8.93407 10.3838 9.06668 10.4832C9.51668 10.8249 10.0083 11.1416 10.5083 11.4332C10.6267 11.5029 10.7189 11.6096 10.7707 11.7368C10.8226 11.8641 10.8311 12.0048 10.7952 12.1374C10.7592 12.27 10.6806 12.3871 10.5716 12.4706C10.4625 12.5542 10.3291 12.5996 10.1917 12.5999Z" fill="#DB5E00"/>
</svg>
