<svg width="20" height="21" viewBox="0 0 20 21" fill="none" xmlns="http://www.w3.org/2000/svg">
<path d="M4.47679 20.1792H0.330357V6.82656H4.47679V20.1792ZM2.40134 5.00513C1.07545 5.00513 0 3.90692 0 2.58103C9.49017e-09 1.94415 0.252998 1.33336 0.703336 0.883024C1.15367 0.432685 1.76446 0.179687 2.40134 0.179688C3.03821 0.179687 3.649 0.432685 4.09934 0.883024C4.54968 1.33336 4.80268 1.94415 4.80268 2.58103C4.80268 3.90692 3.72679 5.00513 2.40134 5.00513ZM19.9955 20.1792H15.858V13.6792C15.858 12.1301 15.8268 10.1435 13.7022 10.1435C11.5464 10.1435 11.2161 11.8266 11.2161 13.5676V20.1792H7.07411V6.82656H11.0509V8.64799H11.1089C11.6625 7.59888 13.0147 6.49174 15.0321 6.49174C19.2286 6.49174 20 9.25513 20 12.8444V20.1792H19.9955Z" fill="black"/>
</svg>
