<svg width="15" height="21" viewBox="0 0 15 21" fill="none" xmlns="http://www.w3.org/2000/svg">
<path d="M2.12537 2.72951C3.48615 1.09657 5.33177 0.179199 7.2562 0.179199C9.18064 0.179199 11.0263 1.09657 12.387 2.72951C13.7478 4.36245 14.5123 6.57719 14.5123 8.88651C14.5123 11.1958 13.7478 13.4106 12.387 15.0435L11.3979 16.2175C10.6687 17.0755 9.72287 18.1795 8.55954 19.5295C8.20989 19.9352 7.74256 20.162 7.2562 20.162C6.76984 20.162 6.30251 19.9352 5.95287 19.5295L3.0437 16.1335C2.67704 15.7025 2.37204 15.3395 2.12537 15.0435C1.45155 14.235 0.91704 13.2751 0.552367 12.2187C0.187695 11.1623 0 10.03 0 8.88651C0 7.74304 0.187695 6.61077 0.552367 5.55434C0.91704 4.49792 1.45155 3.53804 2.12537 2.72951ZM11.5029 3.78951C10.9451 3.12023 10.2829 2.58934 9.55413 2.22715C8.82537 1.86496 8.04429 1.67857 7.25549 1.67862C6.4667 1.67867 5.68563 1.86515 4.9569 2.22742C4.22816 2.5897 3.56602 3.12066 3.00829 3.79001C2.45055 4.45936 2.00814 5.25398 1.70632 6.1285C1.4045 7.00302 1.24917 7.94031 1.24921 8.88687C1.24925 9.83342 1.40465 10.7707 1.70654 11.6452C2.00844 12.5197 2.45091 13.3142 3.0087 13.9835L4.2487 15.4515C4.93037 16.2525 5.7887 17.2525 6.82204 18.4515C6.93856 18.5865 7.09422 18.662 7.2562 18.662C7.41819 18.662 7.57385 18.5865 7.69037 18.4515L10.5195 15.1515C10.9112 14.6905 11.2387 14.3015 11.5029 13.9835C12.6291 12.6319 13.2618 10.7989 13.2618 8.88751C13.2618 6.97616 12.6291 5.14308 11.5029 3.79151V3.78951ZM7.2562 6.16051C7.58473 6.16051 7.91003 6.23816 8.21355 6.38903C8.51707 6.53989 8.79285 6.76102 9.02515 7.03978C9.25745 7.31854 9.44172 7.64948 9.56744 8.0137C9.69316 8.37792 9.75787 8.76828 9.75787 9.16251C9.75787 9.55674 9.69316 9.94711 9.56744 10.3113C9.44172 10.6755 9.25745 11.0065 9.02515 11.2852C8.79285 11.564 8.51707 11.7851 8.21355 11.936C7.91003 12.0869 7.58473 12.1645 7.2562 12.1645C6.60074 12.1502 5.97616 11.8276 5.51684 11.2663C5.05753 10.705 4.80019 9.9497 4.80019 9.16301C4.80019 8.37632 5.05753 7.62107 5.51684 7.05974C5.97616 6.49841 6.60074 6.17587 7.2562 6.16151V6.16051ZM7.2562 7.66051C6.92424 7.66051 6.60587 7.81876 6.37114 8.10044C6.13641 8.38212 6.00454 8.76416 6.00454 9.16251C6.00454 9.56087 6.13641 9.94291 6.37114 10.2246C6.60587 10.5063 6.92424 10.6645 7.2562 10.6645C7.58246 10.6544 7.89253 10.4918 8.12032 10.2113C8.3481 9.93081 8.47558 9.55466 8.47558 9.16301C8.47558 8.77137 8.3481 8.39521 8.12032 8.11473C7.89253 7.83424 7.58246 7.67162 7.2562 7.66151V7.66051Z" fill="#FFCC00"/>
</svg>
