<svg width="16" height="16" viewBox="0 0 16 16" fill="none" xmlns="http://www.w3.org/2000/svg">
<path d="M4.25 6.63281V5.38281C4.25 3.31406 4.875 1.63281 8 1.63281C11.125 1.63281 11.75 3.31406 11.75 5.38281V6.63281" stroke="#87898E" stroke-width="1.5" stroke-linecap="round" stroke-linejoin="round"/>
<path d="M8 11.9453C8.86294 11.9453 9.5625 11.2458 9.5625 10.3828C9.5625 9.51987 8.86294 8.82031 8 8.82031C7.13706 8.82031 6.4375 9.51987 6.4375 10.3828C6.4375 11.2458 7.13706 11.9453 8 11.9453Z" stroke="#87898E" stroke-width="1.5" stroke-linecap="round" stroke-linejoin="round"/>
<path d="M11.125 14.1328H4.875C2.375 14.1328 1.75 13.5078 1.75 11.0078V9.75781C1.75 7.25781 2.375 6.63281 4.875 6.63281H11.125C13.625 6.63281 14.25 7.25781 14.25 9.75781V11.0078C14.25 13.5078 13.625 14.1328 11.125 14.1328Z" stroke="#87898E" stroke-width="1.5" stroke-linecap="round" stroke-linejoin="round"/>
</svg>
