<svg width="36" height="37" viewBox="0 0 36 37" fill="none" xmlns="http://www.w3.org/2000/svg">
<path d="M16.1296 22.9365C16.1296 23.3283 15.9919 23.6624 15.7164 23.939L12.3931 27.2749C12.1176 27.5515 11.779 27.6897 11.3772 27.6897C10.9755 27.6897 10.6368 27.5572 10.3613 27.2922C10.0858 27.0272 9.94806 26.6872 9.94806 26.2724C9.94806 25.8691 10.0858 25.5292 10.3613 25.2526L13.6846 21.9167C13.9601 21.6401 14.2987 21.5019 14.7005 21.5019C15.1022 21.5019 15.4409 21.6401 15.7164 21.9167C15.9919 22.1932 16.1296 22.5332 16.1296 22.9365ZM12.5998 21.1389C12.5998 21.5422 12.462 21.8821 12.1865 22.1587L9.72422 24.6131C9.44872 24.8896 9.11582 25.0279 8.72552 25.0279C8.32375 25.0279 7.98511 24.8954 7.70961 24.6304C7.43411 24.3653 7.29636 24.0254 7.29636 23.6106C7.29636 23.2073 7.43411 22.8673 7.70961 22.5908L10.1547 20.1191C10.281 19.9923 10.4359 19.8944 10.6196 19.8253C10.8033 19.7561 10.9869 19.7158 11.1706 19.7043C11.5724 19.7043 11.911 19.8425 12.1865 20.1191C12.462 20.3956 12.5998 20.7356 12.5998 21.1389ZM18.5403 25.8576C18.5403 26.2378 18.3968 26.572 18.1098 26.8601L15.0448 29.9367C14.7693 30.2133 14.4307 30.3516 14.0289 30.3516C13.6272 30.3516 13.2885 30.219 13.013 29.954C12.7375 29.689 12.5998 29.3491 12.5998 28.9342C12.5998 28.5309 12.7375 28.191 13.013 27.9144L16.0952 24.8378C16.3822 24.5497 16.7151 24.4057 17.0939 24.4057C17.4842 24.4057 17.8228 24.5439 18.1098 24.8205C18.3968 25.097 18.5403 25.4427 18.5403 25.8576ZM16.6806 33.0307C16.2789 33.0307 15.9402 32.8924 15.6647 32.6158C15.3892 32.3393 15.2515 31.9994 15.2515 31.596C15.2515 31.1927 15.3892 30.8528 15.6647 30.5763L17.9893 28.2601C18.2762 27.972 18.6149 27.828 19.0052 27.828C19.407 27.828 19.7456 27.972 20.0211 28.2601C20.2966 28.5482 20.4343 28.8939 20.4343 29.2972C20.4343 29.4816 20.3942 29.6602 20.3138 29.833C20.2335 30.0059 20.1301 30.1557 20.0039 30.2824L17.6965 32.6158C17.421 32.8924 17.0824 33.0307 16.6806 33.0307ZM33.2624 13.1016C33.2624 14.1156 33.1304 15.0029 32.8664 15.7634C32.6023 16.5239 32.2465 17.2326 31.7988 17.8894C31.3511 18.5462 30.8345 19.1684 30.2491 19.7561C29.6636 20.3438 29.0438 20.9776 28.3895 21.6574L18.2303 11.4077L13.1163 16.5066C12.772 16.8293 12.3702 16.9906 11.911 16.9906C11.4404 16.9906 11.0443 16.8293 10.7229 16.5066C10.4015 16.184 10.235 15.7807 10.2236 15.2967C10.2236 14.8242 10.39 14.4209 10.7229 14.0868L18.0926 6.72355C18.942 5.88236 19.9063 5.24283 20.9853 4.80496C22.0644 4.36708 23.2008 4.14238 24.3947 4.13086C25.623 4.13086 26.7766 4.36708 27.8557 4.83953C28.9347 5.31197 29.8703 5.95726 30.6623 6.7754C31.4544 7.59354 32.0858 8.54419 32.5564 9.62735C33.0271 10.7105 33.2624 11.8686 33.2624 13.1016ZM28.5789 23.5414C28.5789 23.9447 28.4411 24.2847 28.1656 24.5612C27.8901 24.8378 27.5515 24.9761 27.1497 24.9761C26.7594 24.9761 26.4265 24.8378 26.151 24.5612L20.8648 19.2376C20.7845 19.1569 20.6754 19.1166 20.5377 19.1166C20.4114 19.1166 20.3023 19.1569 20.2105 19.2376C20.1187 19.3182 20.0727 19.4277 20.0727 19.566C20.0727 19.6812 20.1187 19.7849 20.2105 19.8771L25.996 25.6847C26.283 25.9728 26.4265 26.3127 26.4265 26.7045C26.4265 27.1078 26.2888 27.4477 26.0133 27.7243C25.7377 28.0009 25.3934 28.1391 24.9801 28.1391C24.5898 28.1391 24.2569 28.0009 23.9814 27.7243L18.1959 21.9167C18.1155 21.836 18.0065 21.7957 17.8687 21.7957C17.7425 21.7957 17.6391 21.836 17.5588 21.9167C17.4784 21.9973 17.4325 22.1068 17.421 22.2451C17.421 22.3603 17.467 22.464 17.5588 22.5562L23.3443 28.3638C23.6198 28.6404 23.7576 28.9803 23.7576 29.3836C23.7576 29.7869 23.6198 30.1269 23.3443 30.4034C23.0688 30.68 22.7302 30.8182 22.3284 30.8182C22.03 30.8182 21.7889 30.7549 21.6052 30.6281C21.4216 30.5014 21.2322 30.3285 21.037 30.1096C21.1518 29.8676 21.2092 29.5853 21.2092 29.2626C21.2092 28.9515 21.1518 28.6634 21.037 28.3984C20.9222 28.1334 20.7615 27.8971 20.5549 27.6897C20.3482 27.4823 20.1072 27.3268 19.8317 27.223C19.5562 27.1193 19.2635 27.0617 18.9535 27.0502C19.1831 26.693 19.2979 26.2954 19.2979 25.8576C19.2979 25.5464 19.2405 25.2584 19.1257 24.9933C19.0109 24.7283 18.8559 24.4921 18.6608 24.2847C18.4657 24.0773 18.2303 23.9159 17.9548 23.8007C17.6793 23.6855 17.3981 23.6279 17.1111 23.6279H16.9561C16.9102 23.6279 16.8528 23.6394 16.7839 23.6624C16.8184 23.5357 16.8471 23.4147 16.87 23.2994C16.893 23.1842 16.9045 23.0575 16.9045 22.9192C16.9045 22.6196 16.8471 22.3373 16.7323 22.0722C16.6175 21.8072 16.4625 21.571 16.2674 21.3636C16.0722 21.1562 15.8369 20.9948 15.5614 20.8796C15.2859 20.7644 14.9989 20.7068 14.7005 20.7068C14.4594 20.7068 14.2298 20.7471 14.0117 20.8278C13.7936 20.9084 13.5812 21.0179 13.3746 21.1562C13.3746 20.845 13.3172 20.557 13.2024 20.2919C13.0876 20.0269 12.9327 19.7907 12.7375 19.5833C12.5424 19.3759 12.3128 19.2145 12.0488 19.0993C11.7847 18.9841 11.492 18.9265 11.1706 18.9265C10.8836 18.9265 10.6024 18.9783 10.3269 19.082C10.0514 19.1857 9.81031 19.347 9.60369 19.566L7.41689 21.7784C6.72814 21.0755 6.07956 20.4244 5.47116 19.8253C4.86276 19.2261 4.33472 18.5923 3.88703 17.9239C3.43934 17.2556 3.07774 16.5297 2.80224 15.7461C2.52674 14.9625 2.39473 14.0407 2.40621 12.9806C2.40621 11.7591 2.64153 10.6126 3.11218 9.54093C3.58283 8.46929 4.22566 7.53592 5.04069 6.74083C5.85572 5.94574 6.80275 5.31197 7.8818 4.83953C8.96085 4.36708 10.103 4.13086 11.3084 4.13086C12.4218 4.13086 13.4894 4.32675 14.5111 4.71853C15.5327 5.11032 16.4568 5.68647 17.2833 6.44699L10.1719 13.5337C9.94232 13.7641 9.7644 14.0292 9.63812 14.3288C9.51185 14.6284 9.44298 14.951 9.4315 15.2967C9.4315 15.6424 9.49463 15.965 9.6209 16.2646C9.74718 16.5642 9.9251 16.8235 10.1547 17.0424C10.3843 17.2614 10.6483 17.44 10.9468 17.5783C11.2452 17.7165 11.5666 17.7857 11.911 17.7857C12.2439 17.7857 12.5596 17.7223 12.858 17.5955C13.1565 17.4688 13.4263 17.2902 13.6673 17.0597L18.2303 12.4966L28.1656 22.5216C28.4411 22.7982 28.5789 23.1381 28.5789 23.5414ZM18.5403 32.8578L20.4516 30.9392C20.5434 31.1466 20.5893 31.3541 20.5893 31.5615C20.5893 31.9648 20.4516 32.3047 20.1761 32.5813C19.9006 32.8578 19.5619 32.9961 19.1601 32.9961C18.9535 32.9961 18.7469 32.95 18.5403 32.8578Z" fill="#DB5E00"/>
</svg>
