<svg width="600" height="119" viewBox="0 0 600 119" fill="none" xmlns="http://www.w3.org/2000/svg">
<path d="M214.831 68.4065C211.537 68.4065 208.381 67.9752 205.361 67.1125C202.342 66.2106 199.91 65.0538 198.067 63.6421L201.303 56.4661C203.067 57.7209 205.145 58.7601 207.537 59.5836C209.969 60.3678 212.419 60.76 214.89 60.76C216.772 60.76 218.282 60.5835 219.419 60.2306C220.595 59.8385 221.458 59.3091 222.007 58.6425C222.556 57.9758 222.831 57.2112 222.831 56.3485C222.831 55.2505 222.399 54.3878 221.537 53.7604C220.674 53.0938 219.537 52.5644 218.125 52.1723C216.713 51.7409 215.145 51.3488 213.419 50.9959C211.733 50.6038 210.027 50.1332 208.302 49.5842C206.616 49.0352 205.067 48.3294 203.655 47.4667C202.244 46.604 201.087 45.4668 200.185 44.0552C199.322 42.6435 198.891 40.8397 198.891 38.6438C198.891 36.291 199.518 34.1539 200.773 32.2324C202.067 30.2718 203.989 28.7228 206.537 27.5857C209.126 26.4093 212.361 25.8211 216.243 25.8211C218.831 25.8211 221.38 26.1348 223.889 26.7622C226.399 27.3504 228.614 28.2523 230.536 29.4679L227.595 36.7027C225.673 35.6047 223.752 34.8009 221.831 34.2911C219.909 33.7421 218.027 33.4676 216.184 33.4676C214.341 33.4676 212.831 33.6833 211.655 34.1146C210.478 34.546 209.635 35.1146 209.126 35.8204C208.616 36.487 208.361 37.2713 208.361 38.1732C208.361 39.232 208.792 40.0946 209.655 40.7613C210.518 41.3887 211.655 41.8985 213.066 42.2906C214.478 42.6827 216.027 43.0748 217.713 43.467C219.439 43.8591 221.144 44.3101 222.831 44.8198C224.556 45.3296 226.124 46.0158 227.536 46.8785C228.948 47.7412 230.085 48.8784 230.948 50.2901C231.85 51.7017 232.301 53.4859 232.301 55.6427C232.301 57.9562 231.653 60.0737 230.359 61.9952C229.065 63.9166 227.124 65.4655 224.536 66.6419C221.987 67.8183 218.752 68.4065 214.831 68.4065ZM238.812 67.7007V26.5269H246.693L264.222 55.5838H260.045L277.28 26.5269H285.103L285.22 67.7007H276.28L276.221 40.2319H277.868L264.104 63.348H259.81L245.752 40.2319H247.752V67.7007H238.812ZM294.989 67.7007V26.5269H304.518V67.7007H294.989ZM314.289 67.7007V26.5269H323.818V59.9365H344.464V67.7007H314.289ZM358.552 43.1141H378.374V50.5253H358.552V43.1141ZM359.258 60.0541H381.668V67.7007H349.788V26.5269H380.903V34.1735H359.258V60.0541Z" fill="#FFCC00"/>
<path d="M324.619 95.7444C332.6 105.921 343.721 113.197 356.264 116.447C368.808 119.698 382.076 118.743 394.02 113.729C405.965 108.716 415.921 99.9236 422.353 88.7091C428.784 77.4947 431.333 64.482 429.605 51.6801L421.864 52.7179C423.362 63.8253 421.151 75.1156 415.571 84.8457C409.991 94.5758 401.352 102.205 390.989 106.554C380.625 110.904 369.113 111.733 358.23 108.912C347.347 106.092 337.698 99.7797 330.773 90.9498L324.619 95.7444Z" fill="#DB5E00"/>
<path d="M398.983 34.291C398.025 33.3356 398.025 31.7864 398.983 30.8308C399.942 29.8753 401.496 29.8751 402.455 30.8306L398.983 34.291ZM402.455 30.8306L416.366 44.6941L412.895 48.1545L398.983 34.291L402.455 30.8306Z" fill="#FFCC00"/>
<path d="M427.665 21.5086C427.652 20.1551 426.544 19.0687 425.19 19.082C423.837 19.0953 422.75 20.2033 422.764 21.5568L427.665 21.5086ZM422.764 21.5568L422.957 41.1627L427.858 41.1145L427.665 21.5086L422.764 21.5568Z" fill="#FFCC00"/>
<path d="M445.28 28.8328C446.04 27.7132 447.566 27.4195 448.688 28.1768C449.81 28.934 450.103 30.4555 449.342 31.5751L445.28 28.8328ZM449.342 31.5751L438.311 47.8098L434.248 45.0675L445.28 28.8328L449.342 31.5751Z" fill="#FFCC00"/>
</svg>
