<svg width="20" height="21" viewBox="0 0 20 21" fill="none" xmlns="http://www.w3.org/2000/svg">
<path d="M19.1667 5.18988C18.9275 5.54745 18.6569 5.8809 18.355 6.19023C18.0531 6.49955 17.7255 6.78192 17.3723 7.03733C17.378 7.11679 17.3823 7.19483 17.3851 7.27146C17.388 7.34808 17.3894 7.42612 17.3894 7.50558C17.3894 8.22072 17.3125 8.92735 17.1587 9.62547C17.0049 10.3236 16.7827 10.999 16.4922 11.6517C16.0706 12.5996 15.5437 13.4467 14.9114 14.193C14.279 14.9394 13.5627 15.5708 12.7623 16.0873C11.962 16.6038 11.0889 16.9983 10.1433 17.2707C9.19767 17.5431 8.20646 17.6794 7.16967 17.6794C6.18986 17.6794 5.23425 17.5446 4.30285 17.275C3.37146 17.0054 2.49275 16.6038 1.66675 16.0703C1.94588 16.1043 2.23071 16.1214 2.52124 16.1214C3.33586 16.1214 4.12341 15.9908 4.88391 15.7297C5.6444 15.4687 6.34366 15.0884 6.98168 14.5889C6.60001 14.5832 6.23258 14.5194 5.87939 14.3974C5.5262 14.2753 5.20291 14.1051 4.90954 13.8865C4.61616 13.668 4.35982 13.4084 4.1405 13.1075C3.92118 12.8067 3.7517 12.4747 3.63207 12.1115C3.74601 12.1285 3.85851 12.1427 3.9696 12.154C4.08068 12.1654 4.19319 12.171 4.30712 12.171C4.62613 12.171 4.93944 12.1285 5.24706 12.0433C4.82552 11.9582 4.43957 11.8078 4.08923 11.5921C3.73889 11.3764 3.43554 11.1139 3.17919 10.8046C2.92285 10.4953 2.72346 10.1462 2.58105 9.75743C2.43863 9.36864 2.36743 8.96141 2.36743 8.53573V8.49316C2.86873 8.77695 3.41275 8.92736 3.99951 8.94438C3.74885 8.77411 3.52526 8.57972 3.32873 8.3612C3.1322 8.14268 2.96557 7.90572 2.82885 7.65032C2.69213 7.39491 2.58675 7.12531 2.51269 6.84152C2.43863 6.55774 2.40161 6.26543 2.40161 5.96462C2.40161 5.64678 2.44148 5.33603 2.52124 5.03238C2.60099 4.72873 2.72347 4.44068 2.88867 4.16825C3.3444 4.73015 3.85139 5.23387 4.40966 5.67941C4.96793 6.12496 5.5618 6.50665 6.19128 6.82449C6.82075 7.14234 7.48014 7.39349 8.16943 7.57795C8.85872 7.76241 9.5651 7.87167 10.2886 7.90572C10.2544 7.77518 10.2302 7.64038 10.2159 7.50133C10.2017 7.36227 10.1946 7.22464 10.1946 7.08842C10.1946 6.59463 10.2886 6.13064 10.4766 5.69644C10.6645 5.26224 10.9209 4.88339 11.2456 4.55987C11.5703 4.23635 11.9506 3.98094 12.3863 3.79364C12.8221 3.60635 13.2878 3.5127 13.7834 3.5127C14.2847 3.5127 14.7618 3.6106 15.2147 3.80642C15.6676 4.00223 16.0649 4.28176 16.4067 4.64501C16.8112 4.56555 17.2028 4.45345 17.5817 4.30872C17.9605 4.16399 18.3265 3.98662 18.6797 3.77662C18.5487 4.19095 18.3479 4.56839 18.0773 4.90893C17.8067 5.24947 17.4834 5.53042 17.1074 5.75178C17.8252 5.66664 18.5116 5.47934 19.1667 5.18988L19.1667 5.18988Z" fill="#323232"/>
</svg>
