<svg width="272" height="27" viewBox="0 0 272 27" fill="none" xmlns="http://www.w3.org/2000/svg">
<path d="M1.19149 2.4631C0.946957 2.36685 0.857552 2.08146 0.991795 1.82567C1.12604 1.56988 1.4331 1.44055 1.67763 1.53681L1.19149 2.4631ZM271.112 1.99996L266.793 6.40087L265.558 1.04416L271.112 1.99996ZM1.67763 1.53681C2.59869 1.89938 3.52303 2.25813 4.45061 2.61306L3.97226 3.54237C3.04207 3.18645 2.11514 2.82669 1.19149 2.4631L1.67763 1.53681ZM10.0375 4.69012C11.9041 5.36406 13.7833 6.02272 15.6749 6.66589L15.2277 7.60646C13.3309 6.96151 11.4465 6.30104 9.57467 5.62522L10.0375 4.69012ZM21.3601 8.54029C23.2588 9.14694 25.1695 9.73819 27.0919 10.3139L26.676 11.2644C24.7483 10.6872 22.8324 10.0943 20.9285 9.486L21.3601 8.54029ZM32.8674 11.9865C34.7956 12.5261 36.735 13.0502 38.6856 13.5587L38.3009 14.518C36.3451 14.0081 34.4004 13.4826 32.4671 12.9415L32.8674 11.9865ZM44.5438 15.0304C46.4987 15.5032 48.4643 15.9605 50.4405 16.4021L50.087 17.3689C48.1056 16.9262 46.1348 16.4677 44.1747 15.9936L44.5438 15.0304ZM56.3739 17.6739C58.353 18.0803 60.3423 18.471 62.3415 18.846L62.0194 19.8193C60.0149 19.4433 58.0204 19.0515 56.0361 18.6441L56.3739 17.6739ZM68.3432 19.9189C70.3441 20.2592 72.3546 20.5837 74.3744 20.8924L74.0835 21.871C72.0585 21.5615 70.0428 21.2361 68.0367 20.895L68.3432 19.9189ZM80.4375 21.7675C82.4577 22.042 84.487 22.3008 86.5252 22.5437L86.2655 23.5265C84.2222 23.283 82.1877 23.0236 80.1622 22.7484L80.4375 21.7675ZM92.6413 23.2219C94.6791 23.4311 96.7255 23.6245 98.7802 23.802L98.5517 24.7881C96.4918 24.6101 94.4402 24.4162 92.3972 24.2065L92.6413 23.2219ZM104.942 24.2846C106.996 24.4289 109.057 24.5575 111.126 24.67L110.929 25.6582C108.855 25.5454 106.788 25.4166 104.729 25.2719L104.942 24.2846ZM117.328 24.9584C119.394 25.0383 121.468 25.1023 123.549 25.1504L123.383 26.1398C121.297 26.0916 119.218 26.0274 117.146 25.9474L117.328 24.9584ZM129.785 25.2461C130.825 25.2541 131.867 25.2581 132.91 25.2581L132.767 26.2478C131.721 26.2478 130.677 26.2438 129.634 26.2358L129.785 25.2461ZM132.91 25.2581C133.954 25.2581 134.997 25.2541 136.039 25.2461L135.904 26.2358C134.859 26.2438 133.813 26.2478 132.767 26.2478L132.91 25.2581ZM142.303 25.1504C144.398 25.1023 146.49 25.0383 148.58 24.9584L148.475 25.9474C146.381 26.0274 144.283 26.0916 142.183 26.1398L142.303 25.1504ZM154.865 24.67C156.966 24.5575 159.065 24.4289 161.16 24.2846L161.087 25.2719C158.987 25.4166 156.883 25.5454 154.776 25.6582L154.865 24.67ZM167.462 23.802C169.568 23.6245 171.67 23.4311 173.768 23.2219L173.728 24.2065C171.624 24.4162 169.516 24.6101 167.405 24.7881L167.462 23.802ZM180.081 22.5437C182.189 22.3008 184.293 22.042 186.393 21.7675L186.384 22.7484C184.279 23.0236 182.17 23.283 180.056 23.5265L180.081 22.5437ZM192.709 20.8924C194.818 20.5837 196.922 20.2592 199.022 19.9189L199.046 20.895C196.941 21.2361 194.831 21.5615 192.717 21.871L192.709 20.8924ZM205.334 18.846C207.441 18.471 209.544 18.0803 211.64 17.6739L211.697 18.6441C209.595 19.0515 207.487 19.4433 205.374 19.8193L205.334 18.846ZM217.941 16.4021C220.045 15.9605 222.143 15.5032 224.235 15.0304L224.325 15.9936C222.228 16.4677 220.125 16.9262 218.015 17.3689L217.941 16.4021ZM230.519 13.5587C232.616 13.0502 234.707 12.5261 236.791 11.9865L236.916 12.9415C234.826 13.4826 232.729 14.0081 230.626 14.518L230.519 13.5587ZM243.051 10.3139C245.14 9.73819 247.221 9.14693 249.295 8.54028L249.453 9.48599C247.374 10.0943 245.286 10.6872 243.192 11.2644L243.051 10.3139ZM255.523 6.66589C257.6 6.02271 259.67 5.36406 261.731 4.69011L261.924 5.62521C259.857 6.30103 257.781 6.96151 255.698 7.60645L255.523 6.66589ZM0.948418 2.92625C0.459358 2.73373 0.280548 2.16296 0.549035 1.65138C0.817521 1.1398 1.43163 0.881152 1.92069 1.07366L0.948418 2.92625ZM271.112 1.99996L262.475 10.8018L260.004 0.088356L271.112 1.99996ZM1.92069 1.07366C2.84046 1.43572 3.7635 1.79398 4.6898 2.1484L3.73308 4.00702C2.80159 3.65061 1.87336 3.29034 0.948418 2.92625L1.92069 1.07366ZM10.2689 4.22257C12.1329 4.89558 14.0095 5.55332 15.8985 6.19561L15.0041 8.07674C13.1047 7.43091 11.2177 6.76952 9.34328 6.09277L10.2689 4.22257ZM21.5759 8.06743C23.472 8.67325 25.3801 9.2637 27.2999 9.8386L26.468 11.7397C24.5377 11.1617 22.6192 10.568 20.7127 9.95885L21.5759 8.06743ZM33.0676 11.5089C34.9931 12.0478 36.93 12.5712 38.878 13.079L38.1085 14.9976C36.1501 14.4871 34.2028 13.9609 32.2669 13.4191L33.0676 11.5089ZM44.7283 14.5488C46.6806 15.021 48.6436 15.4777 50.6172 15.9186L49.9103 17.8523C47.9263 17.409 45.9528 16.95 43.9901 16.4752L44.7283 14.5488ZM56.5428 17.1888C58.5193 17.5946 60.506 17.9849 62.5026 18.3593L61.8583 20.3059C59.8512 19.9295 57.8541 19.5372 55.8672 19.1292L56.5428 17.1888ZM68.4965 19.4309C70.4948 19.7707 72.5026 20.0948 74.5199 20.4031L73.9381 22.3603C71.9104 22.0504 69.8921 21.7246 67.8834 21.383L68.4965 19.4309ZM80.5752 21.2771C82.5928 21.5513 84.6195 21.8097 86.655 22.0523L86.1357 24.0179C84.0897 23.7741 82.0526 23.5144 80.0246 23.2388L80.5752 21.2771ZM92.7633 22.7296C94.7985 22.9385 96.8423 23.1317 98.8944 23.309L98.4375 25.2811C96.375 25.1029 94.3208 24.9088 92.2752 24.6987L92.7633 22.7296ZM105.049 23.791C107.1 23.9351 109.158 24.0635 111.225 24.1759L110.83 26.1524C108.753 26.0394 106.684 25.9104 104.623 25.7655L105.049 23.791ZM117.419 24.4639C119.483 24.5437 121.554 24.6077 123.633 24.6556L123.3 26.6345C121.211 26.5863 119.129 26.522 117.055 26.4418L117.419 24.4639ZM129.86 24.7513C130.899 24.7592 131.94 24.7632 132.982 24.7632L132.696 26.7426C131.648 26.7426 130.603 26.7386 129.559 26.7306L129.86 24.7513ZM132.982 24.7632C134.024 24.7632 135.066 24.7592 136.107 24.7513L135.836 26.7306C134.79 26.7386 133.743 26.7426 132.696 26.7426L132.982 24.7632ZM142.362 24.6556C144.455 24.6077 146.545 24.5437 148.632 24.4639L148.423 26.4418C146.326 26.522 144.226 26.5863 142.123 26.6345L142.362 24.6556ZM154.909 24.1759C157.008 24.0635 159.104 23.9351 161.196 23.791L161.051 25.7655C158.948 25.9104 156.842 26.0394 154.732 26.1524L154.909 24.1759ZM167.49 23.309C169.593 23.1317 171.693 22.9385 173.789 22.7296L173.707 24.6987C171.601 24.9088 169.491 25.1029 167.377 25.2811L167.49 23.309ZM180.093 22.0523C182.199 21.8097 184.3 21.5513 186.397 21.2771L186.38 23.2388C184.272 23.5144 182.16 23.7741 180.044 24.0179L180.093 22.0523ZM192.705 20.4031C194.811 20.0948 196.913 19.7707 199.01 19.4309L199.058 21.383C196.951 21.7246 194.838 22.0504 192.721 22.3603L192.705 20.4031ZM205.313 18.3593C207.418 17.9849 209.518 17.5946 211.612 17.1888L211.726 19.1292C209.621 19.5372 207.511 19.9295 205.395 20.3059L205.313 18.3593ZM217.905 15.9186C220.006 15.4777 222.101 15.021 224.19 14.5488L224.371 16.4752C222.271 16.95 220.164 17.409 218.052 17.8523L217.905 15.9186ZM230.465 13.079C232.56 12.5712 234.648 12.0478 236.729 11.5089L236.978 13.4191C234.885 13.9609 232.786 14.4871 230.68 14.9976L230.465 13.079ZM242.98 9.8386C245.066 9.2637 247.145 8.67325 249.216 8.06743L249.533 9.95885C247.45 10.568 245.36 11.1617 243.262 11.7397L242.98 9.8386ZM255.435 6.19561C257.51 5.55332 259.577 4.89557 261.635 4.22256L262.02 6.09276C259.95 6.76952 257.872 7.4309 255.785 8.07674L255.435 6.19561Z" fill="#FFCC00"/>
</svg>
